<svg id="Calque_1" xmlns="http://www.w3.org/2000/svg" xmlns:xlink="http://www.w3.org/1999/xlink" viewBox="0 0 200 59"><style>.st0{clip-path:url(#SVGID_2_)}.st1{clip-path:url(#SVGID_4_);fill:#fff}.st2{clip-path:url(#SVGID_6_)}.st3{clip-path:url(#SVGID_8_);fill:#fff}.st4{clip-path:url(#SVGID_10_)}.st5{clip-path:url(#SVGID_12_);fill:#fff}.st6{clip-path:url(#SVGID_14_)}.st7{clip-path:url(#SVGID_16_);fill:#eb302e}.st8{clip-path:url(#SVGID_18_)}.st9{clip-path:url(#SVGID_20_);fill:#fff}.st10{clip-path:url(#SVGID_22_)}.st11{clip-path:url(#SVGID_24_);fill:#fff}.st12{clip-path:url(#SVGID_26_)}.st13{clip-path:url(#SVGID_28_);fill:#fff}.st14{clip-path:url(#SVGID_30_)}.st15{clip-path:url(#SVGID_32_);fill:#eb302e}.st16{clip-path:url(#SVGID_34_)}.st17{clip-path:url(#SVGID_36_);fill:#fff}.st18{clip-path:url(#SVGID_38_)}.st19{clip-path:url(#SVGID_40_);fill:#fff}</style><defs><path id="SVGID_1_" d="M60.7 25.4c0-3.4-2.8-6.2-6.2-6.2-3.4 0-6.2 2.8-6.2 6.2 0 3.4 2.8 6.2 6.2 6.2 3.4 0 6.2-2.8 6.2-6.2"/></defs><clipPath id="SVGID_2_"><use xlink:href="#SVGID_1_" overflow="visible"/></clipPath><g class="st0"><defs><path id="SVGID_3_" d="M0 0h201v58.6H0z"/></defs><clipPath id="SVGID_4_"><use xlink:href="#SVGID_3_" overflow="visible"/></clipPath><path class="st1" d="M43.3 14.1h22.3v22.4H43.3z"/></g><defs><path id="SVGID_5_" d="M60.7 44.5c0-3.4-2.8-6.2-6.2-6.2-3.4 0-6.2 2.8-6.2 6.2 0 3.4 2.8 6.2 6.2 6.2 3.4 0 6.2-2.7 6.2-6.2"/></defs><clipPath id="SVGID_6_"><use xlink:href="#SVGID_5_" overflow="visible"/></clipPath><g class="st2"><defs><path id="SVGID_7_" d="M0 0h201v58.6H0z"/></defs><clipPath id="SVGID_8_"><use xlink:href="#SVGID_7_" overflow="visible"/></clipPath><path class="st3" d="M43.3 33.3h22.3v22.4H43.3z"/></g><defs><path id="SVGID_9_" d="M60.7 6.2c0-3.4-2.8-6.2-6.2-6.2-3.4 0-6.2 2.8-6.2 6.2 0 3.4 2.8 6.2 6.2 6.2 3.4 0 6.2-2.7 6.2-6.2"/></defs><clipPath id="SVGID_10_"><use xlink:href="#SVGID_9_" overflow="visible"/></clipPath><g class="st4"><defs><path id="SVGID_11_" d="M0 0h201v58.6H0z"/></defs><clipPath id="SVGID_12_"><use xlink:href="#SVGID_11_" overflow="visible"/></clipPath><path class="st5" d="M43.3-5h22.3v22.4H43.3z"/></g><defs><path id="SVGID_13_" d="M6.6 49.8H1L0 32.9V0h7.6v32.9z"/></defs><clipPath id="SVGID_14_"><use xlink:href="#SVGID_13_" overflow="visible"/></clipPath><g class="st6"><defs><path id="SVGID_15_" d="M0 0h201v58.6H0z"/></defs><clipPath id="SVGID_16_"><use xlink:href="#SVGID_15_" overflow="visible"/></clipPath><path class="st7" d="M-5-5h17.6v59.8H-5z"/></g><defs><path id="SVGID_17_" d="M37.9 49.8h-5.7l-.9-16.9V0h7.6v32.9z"/></defs><clipPath id="SVGID_18_"><use xlink:href="#SVGID_17_" overflow="visible"/></clipPath><g class="st8"><defs><path id="SVGID_19_" d="M0 0h201v58.6H0z"/></defs><clipPath id="SVGID_20_"><use xlink:href="#SVGID_19_" overflow="visible"/></clipPath><path class="st9" d="M26.3-5h17.6v59.8H26.3z"/></g><defs><path id="SVGID_21_" d="M132.7 49.8H127l-.9-18.4V0h7.5v31.4z"/></defs><clipPath id="SVGID_22_"><use xlink:href="#SVGID_21_" overflow="visible"/></clipPath><g class="st10"><defs><path id="SVGID_23_" d="M0 0h201v58.6H0z"/></defs><clipPath id="SVGID_24_"><use xlink:href="#SVGID_23_" overflow="visible"/></clipPath><path class="st11" d="M121.1-5h17.6v59.8h-17.6z"/></g><defs><path id="SVGID_25_" d="M79.5 49.8H72L92.1 0h7.4z"/></defs><clipPath id="SVGID_26_"><use xlink:href="#SVGID_25_" overflow="visible"/></clipPath><g class="st12"><defs><path id="SVGID_27_" d="M0 0h201v58.6H0z"/></defs><clipPath id="SVGID_28_"><use xlink:href="#SVGID_27_" overflow="visible"/></clipPath><path class="st13" d="M67-5h37.5v59.8H67z"/></g><defs><path id="SVGID_29_" d="M25.6 25.4c0-3.4-2.8-6.2-6.2-6.2-3.4 0-6.2 2.8-6.2 6.2 0 3.4 2.8 6.2 6.2 6.2 3.4 0 6.2-2.8 6.2-6.2"/></defs><clipPath id="SVGID_30_"><use xlink:href="#SVGID_29_" overflow="visible"/></clipPath><g class="st14"><defs><path id="SVGID_31_" d="M0 0h201v58.6H0z"/></defs><clipPath id="SVGID_32_"><use xlink:href="#SVGID_31_" overflow="visible"/></clipPath><path class="st15" d="M8.3 14.1h22.3v22.4H8.3z"/></g><defs><path id="SVGID_33_" d="M120.3 58.3c-6.4 1-13.4-4-14-10-.7-6 4-10.8 9.8-9.9 4.7.7 6.6 6 4.2 9.6-2.6 3.7-7.4 2.9-10 2.2-1.1-.4-1.8-.1-1.3.9 1.1 2.6 5.3 6.8 11.2 6.4l.1.8z"/></defs><clipPath id="SVGID_34_"><use xlink:href="#SVGID_33_" overflow="visible"/></clipPath><g class="st16"><defs><path id="SVGID_35_" d="M0 0h201v58.6H0z"/></defs><clipPath id="SVGID_36_"><use xlink:href="#SVGID_35_" overflow="visible"/></clipPath><path class="st17" d="M101.2 33.3h25.2v30.1h-25.2z"/></g><defs><path id="SVGID_37_" d="M197 48.9c1.1 0 1.4-.7 1.4-2.1v-1c0-1.4-.4-2.1-1.4-2.1h-1.2v5.2h1.2zm0 1.4h-2.8v-8h2.8c1.8 0 3 .9 3 3.5v1c0 2.6-1.2 3.5-3 3.5zm-8.2-4.5h1.1c.9 0 1.5-.2 1.5-1s-.5-1.1-1.5-1.1h-1.1v2.1zm4.4 4.5h-1.7l-1.4-3.1h-1.3v3.1h-1.6v-8h2.8c1.8 0 2.9.8 2.9 2.4 0 1.1-.5 1.8-1.3 2.1l1.6 3.5zM183 44.6l-.9 2.8h1.8l-.9-2.8zm-1.8 5.7h-1.7l2.7-8h1.5l2.7 8h-1.7l-.5-1.5h-2.6l-.4 1.5zm-3.9-8V47c0 1.4-.4 2-1.4 2-1 0-1.4-.6-1.4-2v-4.7h-1.6V47c0 2.3 1.3 3.3 3 3.3s3-1 3-3.3v-4.7h-1.6zm-10.2 3.4v1.1c0 1.5.5 2.2 1.4 2.2.3 0 .5-.1.7-.2l-.9-.8.9-1 .7.6c0-.2.1-.5.1-.8v-1.1c0-1.5-.5-2.2-1.4-2.2-1.1.1-1.5.7-1.5 2.2zm4.4 1.2c0 .8-.1 1.4-.4 1.9l1.1.9-.8 1-1.1-.9c-.5.4-1.1.6-1.8.6-1.8 0-3-1.1-3-3.5v-1.1c0-2.5 1.2-3.5 3-3.5s3 1.1 3 3.5v1.1zm-6.8-2.1c-.3-1.7-1.3-2.6-2.9-2.6-1.8 0-3 1.1-3 3.5v1.1c0 2.4 1.2 3.5 3 3.5 1.6 0 2.6-.8 2.9-2.6h-1.5c-.2.8-.6 1.2-1.3 1.2-.9 0-1.4-.7-1.4-2.2v-1.1c0-1.5.5-2.2 1.4-2.2.8 0 1.2.5 1.3 1.2h1.5zm-9.6-.2l-.9 2.8h1.8l-.9-2.8zm-1.8 5.7h-1.7l2.7-8h1.5l2.7 8h-1.7l-.5-1.5h-2.6l-.4 1.5zm-7.3-1.1c.5.8 1.4 1.2 2.5 1.2 1.6 0 2.7-.9 2.7-3.2v-4.9h-1.6v4.9c0 1.4-.4 1.8-1.2 1.8-.4 0-.8-.2-1.1-.6l-1.3.8zm32.5-20.3v1.4h2.2v6.6h1.6v-6.6h2.2v-1.4h-6zm-4.7 3.4h1.1c.9 0 1.5-.2 1.5-1s-.5-1.1-1.5-1.1h-1.1v2.1zm4.5 4.5h-1.7l-1.4-3.1h-1.3v3.1h-1.6v-8h2.8c1.8 0 2.9.8 2.9 2.4 0 1.1-.5 1.8-1.3 2.1l1.6 3.5zm-12-7.9v8h4.9v-1.4h-3.3v-2.1h2.9V32h-2.9v-1.8h3.3v-1.4h-4.9zm-5.3 1.3V32h1.1c.9 0 1.2-.3 1.2-.9 0-.6-.3-.9-1.4-.9h-.9zm0 3.2v2.1h1.1c1 0 1.4-.4 1.4-1.1 0-.8-.5-1-1.6-1h-.9zm-1.6-4.5h2.6c1.8 0 2.9.7 2.9 2.1 0 .8-.4 1.4-1 1.7.8.3 1.3.9 1.3 1.9 0 1.2-.8 2.3-2.9 2.3h-2.9v-8zm-4.1 0h-1.6v8h4.9v-1.4h-3.3v-6.6zm-5.8 2.2l-.9 2.8h1.8l-.9-2.8zm-1.8 5.7H146l2.7-8h1.5l2.7 8h-1.7l-.5-1.5h-2.6l-.4 1.5zm24.5-21.4v8h4.7v-.9h-3.7v-2.8h3.4v-.9h-3.4v-2.5h3.7v-.9h-4.7zm-4.7 0h-1v8h4.7v-.9h-3.7v-7.1zm-7.2 3.5v.9c0 2 .7 2.7 1.9 2.7s1.9-.8 1.9-2.7v-.9c0-2-.7-2.7-1.9-2.7-1.3 0-1.9.8-1.9 2.7zm4.7.9c0 2.6-1.1 3.6-2.8 3.6s-2.8-1.1-2.8-3.6v-.9c0-2.6 1.1-3.6 2.8-3.6s2.8 1.1 2.8 3.6v.9zm-6.6-1.9c-.2-1.7-1.3-2.6-2.8-2.6-1.7 0-2.8 1.1-2.8 3.6v.9c0 2.6 1.1 3.6 2.8 3.6 1.5 0 2.5-.8 2.8-2.6h-.9c-.3 1.2-.8 1.7-1.9 1.7-1.2 0-1.9-.8-1.9-2.7v-.9c0-2 .7-2.7 1.9-2.7 1 0 1.6.4 1.9 1.7h.9zm-9.6-3.2h.9l1.2-1.5h-1.1l-1 1.5zm-1.8.7v8h4.7v-.9H148v-2.8h3.4v-.9H148v-2.5h3.7v-.9H147zm27.2-13.5v8h4.7V9h-3.7V6.2h3.4v-.9h-3.4V2.8h3.7v-.9h-4.7zm-6.8 0v.9h2.4v7.1h1V2.8h2.4v-.9h-5.8zm-2 0v4.7c0 1.7-.7 2.4-1.9 2.4s-1.9-.7-1.9-2.4V1.9h-1v4.7c0 2.3 1.1 3.3 2.8 3.3s2.8-1 2.8-3.3V1.9h-.8zm-8.8 1.5l-1.2 3.7h2.5l-1.3-3.7zm-2.2 6.5h-1l2.7-8h.9l2.7 8h-1l-.6-1.8H155l-.6 1.8zm-6.4-8h-1v8h1V6.2h3.4v3.7h1v-8h-1v3.4H148V1.9z"/></defs><clipPath id="SVGID_38_"><use xlink:href="#SVGID_37_" overflow="visible"/></clipPath><g class="st18"><defs><path id="SVGID_39_" d="M0 0h201v58.6H0z"/></defs><clipPath id="SVGID_40_"><use xlink:href="#SVGID_39_" overflow="visible"/></clipPath><path class="st19" d="M141-3.1h64v58.8h-64z"/></g></svg>