<svg width="1300" height="688" viewBox="0 0 1300 688" fill="none" xmlns="http://www.w3.org/2000/svg">
<path d="M142.237 224.632L100 258L150.228 237.704L200 258L157.763 224.632L150.228 172L142.237 224.632Z" fill="#121212"/>
<path d="M142.237 310.632L100 344L150.228 323.704L200 344L157.763 310.632L150.228 258L142.237 310.632Z" fill="#121212"/>
<path d="M142.237 138.632L100 172L150.228 151.704L200 172L157.763 138.632L150.228 86L142.237 138.632Z" fill="#121212"/>
<path d="M242.237 267.632L200 301L250.228 280.704L300 301L257.763 267.632L250.228 215L242.237 267.632Z" fill="#121212"/>
<path d="M42.2374 267.632L0 301L50.2283 280.704L100 301L57.7626 267.632L50.2283 215L42.2374 267.632Z" fill="#121212"/>
<path d="M42.2374 181.632L0 215L50.2283 194.704L100 215L57.7626 181.632L50.2283 129L42.2374 181.632Z" fill="#121212"/>
<path d="M242.237 181.632L200 215L250.228 194.704L300 215L257.763 181.632L250.228 129L242.237 181.632Z" fill="#121212"/>
<path d="M442.237 181.632L400 215L450.228 194.704L500 215L457.763 181.632L450.228 129L442.237 181.632Z" fill="#121212"/>
<path d="M442.237 267.632L400 301L450.228 280.704L500 301L457.763 267.632L450.228 215L442.237 267.632Z" fill="#121212"/>
<path d="M442.237 95.632L400 129L450.228 108.704L500 129L457.763 95.632L450.228 43L442.237 95.632Z" fill="#121212"/>
<path d="M542.237 224.632L500 258L550.228 237.704L600 258L557.763 224.632L550.228 172L542.237 224.632Z" fill="#121212"/>
<path d="M342.237 224.632L300 258L350.228 237.704L400 258L357.763 224.632L350.228 172L342.237 224.632Z" fill="#121212"/>
<path d="M342.237 138.632L300 172L350.228 151.704L400 172L357.763 138.632L350.228 86L342.237 138.632Z" fill="#121212"/>
<path d="M542.237 138.632L500 172L550.228 151.704L600 172L557.763 138.632L550.228 86L542.237 138.632Z" fill="#121212"/>
<path d="M742.237 138.632L700 172L750.228 151.704L800 172L757.763 138.632L750.228 86L742.237 138.632Z" fill="#121212"/>
<path d="M742.237 224.632L700 258L750.228 237.704L800 258L757.763 224.632L750.228 172L742.237 224.632Z" fill="#121212"/>
<path d="M742.237 52.632L700 86L750.228 65.704L800 86L757.763 52.632L750.228 0L742.237 52.632Z" fill="#121212"/>
<path d="M842.237 181.632L800 215L850.228 194.704L900 215L857.763 181.632L850.228 129L842.237 181.632Z" fill="#121212"/>
<path d="M642.237 181.632L600 215L650.228 194.704L700 215L657.763 181.632L650.228 129L642.237 181.632Z" fill="#121212"/>
<path d="M642.237 95.632L600 129L650.228 108.704L700 129L657.763 95.632L650.228 43L642.237 95.632Z" fill="#121212"/>
<path d="M842.237 95.632L800 129L850.228 108.704L900 129L857.763 95.632L850.228 43L842.237 95.632Z" fill="#121212"/>
<path d="M342.237 396.632L300 430L350.228 409.704L400 430L357.763 396.632L350.228 344L342.237 396.632Z" fill="#121212"/>
<path d="M342.237 482.632L300 516L350.228 495.704L400 516L357.763 482.632L350.228 430L342.237 482.632Z" fill="#121212"/>
<path d="M342.237 310.632L300 344L350.228 323.704L400 344L357.763 310.632L350.228 258L342.237 310.632Z" fill="#121212"/>
<path d="M442.237 439.632L400 473L450.228 452.704L500 473L457.763 439.632L450.228 387L442.237 439.632Z" fill="#121212"/>
<path d="M242.237 439.632L200 473L250.228 452.704L300 473L257.763 439.632L250.228 387L242.237 439.632Z" fill="#121212"/>
<path d="M242.237 353.632L200 387L250.228 366.704L300 387L257.763 353.632L250.228 301L242.237 353.632Z" fill="#121212"/>
<path d="M442.237 353.632L400 387L450.228 366.704L500 387L457.763 353.632L450.228 301L442.237 353.632Z" fill="#121212"/>
<path d="M642.237 353.632L600 387L650.228 366.704L700 387L657.763 353.632L650.228 301L642.237 353.632Z" fill="#121212"/>
<path d="M642.237 439.632L600 473L650.228 452.704L700 473L657.763 439.632L650.228 387L642.237 439.632Z" fill="#121212"/>
<path d="M642.237 267.632L600 301L650.228 280.704L700 301L657.763 267.632L650.228 215L642.237 267.632Z" fill="#121212"/>
<path d="M742.237 396.632L700 430L750.228 409.704L800 430L757.763 396.632L750.228 344L742.237 396.632Z" fill="#121212"/>
<path d="M542.237 396.632L500 430L550.228 409.704L600 430L557.763 396.632L550.228 344L542.237 396.632Z" fill="#121212"/>
<path d="M542.237 310.632L500 344L550.228 323.704L600 344L557.763 310.632L550.228 258L542.237 310.632Z" fill="#121212"/>
<path d="M742.237 310.632L700 344L750.228 323.704L800 344L757.763 310.632L750.228 258L742.237 310.632Z" fill="#121212"/>
<path d="M942.237 310.632L900 344L950.228 323.704L1000 344L957.763 310.632L950.228 258L942.237 310.632Z" fill="#121212"/>
<path d="M942.237 396.632L900 430L950.228 409.704L1000 430L957.763 396.632L950.228 344L942.237 396.632Z" fill="#121212"/>
<path d="M942.237 224.632L900 258L950.228 237.704L1000 258L957.763 224.632L950.228 172L942.237 224.632Z" fill="#121212"/>
<path d="M1042.24 353.632L1000 387L1050.23 366.704L1100 387L1057.76 353.632L1050.23 301L1042.24 353.632Z" fill="#121212"/>
<path d="M842.237 353.632L800 387L850.228 366.704L900 387L857.763 353.632L850.228 301L842.237 353.632Z" fill="#121212"/>
<path d="M842.237 267.632L800 301L850.228 280.704L900 301L857.763 267.632L850.228 215L842.237 267.632Z" fill="#121212"/>
<path d="M1042.24 267.632L1000 301L1050.23 280.704L1100 301L1057.76 267.632L1050.23 215L1042.24 267.632Z" fill="#121212"/>
<path d="M542.237 568.632L500 602L550.228 581.704L600 602L557.763 568.632L550.228 516L542.237 568.632Z" fill="#121212"/>
<path d="M542.237 654.632L500 688L550.228 667.704L600 688L557.763 654.632L550.228 602L542.237 654.632Z" fill="#121212"/>
<path d="M542.237 482.632L500 516L550.228 495.704L600 516L557.763 482.632L550.228 430L542.237 482.632Z" fill="#121212"/>
<path d="M642.237 611.632L600 645L650.228 624.704L700 645L657.763 611.632L650.228 559L642.237 611.632Z" fill="#121212"/>
<path d="M442.237 611.632L400 645L450.228 624.704L500 645L457.763 611.632L450.228 559L442.237 611.632Z" fill="#121212"/>
<path d="M442.237 525.632L400 559L450.228 538.704L500 559L457.763 525.632L450.228 473L442.237 525.632Z" fill="#121212"/>
<path d="M642.237 525.632L600 559L650.228 538.704L700 559L657.763 525.632L650.228 473L642.237 525.632Z" fill="#121212"/>
<path d="M842.237 525.632L800 559L850.228 538.704L900 559L857.763 525.632L850.228 473L842.237 525.632Z" fill="#121212"/>
<path d="M842.237 611.632L800 645L850.228 624.704L900 645L857.763 611.632L850.228 559L842.237 611.632Z" fill="#121212"/>
<path d="M842.237 439.632L800 473L850.228 452.704L900 473L857.763 439.632L850.228 387L842.237 439.632Z" fill="#121212"/>
<path d="M942.237 568.632L900 602L950.228 581.704L1000 602L957.763 568.632L950.228 516L942.237 568.632Z" fill="#121212"/>
<path d="M742.237 568.632L700 602L750.228 581.704L800 602L757.763 568.632L750.228 516L742.237 568.632Z" fill="#121212"/>
<path d="M742.237 482.632L700 516L750.228 495.704L800 516L757.763 482.632L750.228 430L742.237 482.632Z" fill="#121212"/>
<path d="M942.237 482.632L900 516L950.228 495.704L1000 516L957.763 482.632L950.228 430L942.237 482.632Z" fill="#121212"/>
<path d="M1142.24 482.632L1100 516L1150.23 495.704L1200 516L1157.76 482.632L1150.23 430L1142.24 482.632Z" fill="#121212"/>
<path d="M1142.24 568.632L1100 602L1150.23 581.704L1200 602L1157.76 568.632L1150.23 516L1142.24 568.632Z" fill="#121212"/>
<path d="M1142.24 396.632L1100 430L1150.23 409.704L1200 430L1157.76 396.632L1150.23 344L1142.24 396.632Z" fill="#121212"/>
<path d="M1242.24 525.632L1200 559L1250.23 538.704L1300 559L1257.76 525.632L1250.23 473L1242.24 525.632Z" fill="#121212"/>
<path d="M1042.24 525.632L1000 559L1050.23 538.704L1100 559L1057.76 525.632L1050.23 473L1042.24 525.632Z" fill="#121212"/>
<path d="M1042.24 439.632L1000 473L1050.23 452.704L1100 473L1057.76 439.632L1050.23 387L1042.24 439.632Z" fill="#121212"/>
<path d="M1242.24 439.632L1200 473L1250.23 452.704L1300 473L1257.76 439.632L1250.23 387L1242.24 439.632Z" fill="#121212"/>
</svg>
