<svg width="1446" height="853" viewBox="0 0 1446 853" fill="none" xmlns="http://www.w3.org/2000/svg">
<path d="M50.5145 318.85C47.9831 320.51 45.102 321.676 42.8097 323.347M42.8097 323.347C-46.5367 388.472 43.0196 461.327 100.542 490.232L558.528 723.57C614.926 747.154 643.358 800.018 650.525 823.501C693.323 867.871 738.355 841.989 755.521 823.501C769.921 803.515 804.853 798.852 820.519 799.018L899.017 823.501C923.816 836.692 951.349 821.669 962.015 812.509C975.214 802.916 1003.85 792.856 1016.51 789.025L1152.01 780.031C1231.21 773.636 1328 745.722 1366.5 732.564C1417.7 711.779 1431.5 675.937 1432 660.614L1394.5 318.351C1389.7 262.789 1335.17 210.925 1308.5 191.938L1177.01 133.479C1150.51 136.477 1134.01 139.474 1129.51 171.952C1125.91 197.934 1147.68 213.756 1159.01 218.42L1224.51 224.416C1260.51 230.811 1259.17 275.38 1254.01 296.866L891.017 718.574C835.019 733.364 773.354 708.414 749.522 694.091C728.322 677.302 740.688 664.778 749.522 660.614L829.519 631.634C851.518 623.64 838.685 599.989 829.519 589.163L725.522 463.75C706.323 420.98 712.856 375.978 718.523 358.823C734.122 282.875 712.023 248.899 699.023 241.404L479.53 83.0135L361.534 5.0674C325.135 3.4685 284.369 30.7163 268.537 44.5401C228.038 80.0156 248.037 89.0093 268.537 108.996C284.936 124.984 275.37 139.308 268.537 144.471L154.04 251.397C140.841 264.988 74.3867 305.027 42.8097 323.347Z" stroke="#F7D417" stroke-width="10"/>
<path d="M479.53 83.0134L699.023 241.404C712.023 248.899 734.122 282.875 718.523 358.823C712.856 375.977 706.323 420.98 725.522 463.75L829.519 589.163C838.685 599.989 851.518 623.64 829.519 631.634L749.522 660.614C740.688 664.778 728.322 677.302 749.522 694.091C773.354 708.414 835.019 733.364 891.017 718.574L1254.01 296.866C1259.17 275.38 1260.51 230.811 1224.51 224.416L1159.01 218.42C1147.68 213.756 1125.91 197.934 1129.51 171.952C1134.01 139.474 1150.51 136.476 1177.01 133.479L1308.5 191.938C1335.17 210.925 1389.7 262.789 1394.5 318.351L1432 660.614C1431.5 675.937 1417.7 711.779 1366.5 732.564C1328 745.722 1231.21 773.636 1152.01 780.031L1016.51 789.025C1003.85 792.856 975.214 802.916 962.015 812.509C951.349 821.669 923.816 836.692 899.017 823.501L820.519 799.018C804.853 798.852 769.921 803.515 755.521 823.501C738.355 841.989 693.323 867.871 650.525 823.501C643.358 800.018 614.926 747.154 558.528 723.57L100.542 490.232C43.0196 461.327 -46.5367 388.472 42.8097 323.347M51.0435 318.54C48.512 320.2 45.102 321.676 42.8097 323.347M42.8097 323.347C74.3867 305.027 140.841 264.988 154.04 251.397L268.537 144.471C275.37 139.308 284.936 124.984 268.537 108.995C248.037 89.0093 228.038 80.0155 268.537 44.54" stroke="#F7D417" stroke-width="10"/>
<path d="M479.53 83.0134L699.023 241.404C712.023 248.899 734.122 282.875 718.523 358.823C712.856 375.977 706.323 420.98 725.522 463.75L829.519 589.163C838.685 599.989 851.518 623.64 829.519 631.634L749.522 660.614C740.688 664.778 728.322 677.302 749.522 694.091C773.354 708.414 835.019 733.364 891.017 718.574L1254.01 296.866C1259.17 275.38 1260.51 230.811 1224.51 224.416L1159.01 218.42C1147.68 213.756 1125.91 197.934 1129.51 171.952C1134.01 139.474 1150.51 136.476 1177.01 133.479L1308.5 191.938C1335.17 210.925 1389.7 262.789 1394.5 318.351L1432 660.614C1431.5 675.937 1417.7 711.779 1366.5 732.564C1328 745.722 1231.21 773.636 1152.01 780.031L1016.51 789.025C1003.85 792.856 975.214 802.916 962.015 812.509C951.349 821.669 923.816 836.692 899.017 823.501L820.519 799.018C804.853 798.852 769.921 803.515 755.521 823.501C738.355 841.989 693.323 867.871 650.525 823.501C643.358 800.018 614.926 747.154 558.528 723.57L100.542 490.232C43.0196 461.327 -46.5367 388.472 42.8097 323.347M50.5435 318.833C48.0121 320.493 45.102 321.676 42.8097 323.347M42.8097 323.347C74.3867 305.027 140.841 264.988 154.04 251.397L268.537 144.471" stroke="#F7D417" stroke-width="10"/>
<path d="M479.53 83.0134L699.023 241.404C712.023 248.899 734.122 282.875 718.523 358.823C712.856 375.977 706.323 420.98 725.522 463.75L829.519 589.163C838.685 599.989 851.518 623.64 829.519 631.634L749.522 660.614C740.688 664.778 728.322 677.302 749.522 694.091C773.354 708.414 835.019 733.364 891.017 718.574L1254.01 296.866C1259.17 275.38 1260.51 230.811 1224.51 224.416L1159.01 218.42C1147.68 213.756 1125.91 197.934 1129.51 171.952C1134.01 139.474 1150.51 136.476 1177.01 133.479L1308.5 191.938C1335.17 210.925 1389.7 262.789 1394.5 318.351L1432 660.614C1431.5 675.937 1417.7 711.779 1366.5 732.564C1328 745.722 1231.21 773.636 1152.01 780.031L1016.51 789.025C1003.85 792.856 975.214 802.916 962.015 812.509C951.349 821.669 923.816 836.692 899.017 823.501L820.519 799.018C804.853 798.852 769.921 803.515 755.521 823.501C738.355 841.989 693.323 867.871 650.525 823.501C643.358 800.018 614.926 747.154 558.528 723.57L100.542 490.232C43.0196 461.327 -46.5367 388.472 42.8097 323.347M50.5435 318.85C48.0121 320.51 45.102 321.676 42.8097 323.347M42.8097 323.347C74.3867 305.027 140.841 264.988 154.04 251.397L268.537 144.471" stroke="#F7D417" stroke-width="10"/>
<path d="M479.53 83.0134L699.023 241.404C712.023 248.899 734.122 282.875 718.523 358.823C712.856 375.977 706.323 420.98 725.522 463.75L829.519 589.163C838.685 599.989 851.518 623.64 829.519 631.634L749.522 660.614C740.689 664.778 728.322 677.302 749.522 694.091C773.354 708.414 835.019 733.364 891.017 718.574L1254.01 296.866C1259.17 275.38 1260.51 230.811 1224.51 224.416L1159.01 218.42C1147.68 213.756 1125.91 197.934 1129.51 171.952C1134.01 139.474 1150.51 136.476 1177.01 133.479L1308.5 191.938C1335.17 210.925 1389.7 262.789 1394.5 318.351L1432 660.614C1431.5 675.937 1417.7 711.779 1366.5 732.564C1328 745.722 1231.21 773.636 1152.01 780.031L1016.51 789.025C1003.85 792.856 975.214 802.916 962.015 812.509C951.349 821.669 923.816 836.692 899.017 823.501L820.519 799.018C804.853 798.852 769.921 803.515 755.521 823.501C738.355 841.989 693.323 867.871 650.525 823.501C643.358 800.018 614.926 747.154 558.528 723.57L100.542 490.232" stroke="#F7D417" stroke-width="10"/>
<path d="M479.53 83.0134L699.023 241.404C712.023 248.899 734.122 282.875 718.523 358.823C712.856 375.977 706.323 420.98 725.522 463.75L829.519 589.163C838.685 599.989 851.518 623.64 829.519 631.634L749.522 660.614C740.689 664.778 728.322 677.302 749.522 694.091C773.354 708.414 835.019 733.364 891.017 718.574L1254.01 296.866C1259.17 275.38 1260.51 230.811 1224.51 224.416L1159.01 218.42C1147.68 213.756 1125.91 197.934 1129.51 171.952C1134.01 139.474 1150.51 136.476 1177.01 133.479L1308.5 191.938C1335.17 210.925 1389.7 262.789 1394.5 318.351L1432 660.614C1431.5 675.937 1417.7 711.779 1366.5 732.564C1328 745.722 1231.21 773.636 1152.01 780.031L1016.51 789.025C1003.85 792.856 975.214 802.916 962.015 812.509C951.349 821.669 923.816 836.692 899.017 823.501L820.519 799.018C804.853 798.852 769.921 803.515 755.521 823.501C738.355 841.989 693.323 867.871 650.525 823.501" stroke="#F7D417" stroke-width="10"/>
<path d="M479.53 83.0134L699.023 241.404C712.023 248.899 734.122 282.875 718.523 358.823C712.856 375.977 706.323 420.98 725.522 463.75L829.519 589.163C838.685 599.989 851.518 623.64 829.519 631.634L749.522 660.614C740.689 664.778 728.322 677.302 749.522 694.091C773.354 708.414 835.019 733.364 891.017 718.574L1254.01 296.866C1259.17 275.38 1260.51 230.811 1224.51 224.416L1159.01 218.42C1147.68 213.756 1125.91 197.934 1129.51 171.952C1134.01 139.474 1150.51 136.476 1177.01 133.479L1308.5 191.938C1335.17 210.925 1389.7 262.789 1394.5 318.351L1432 660.614C1431.5 675.937 1417.7 711.779 1366.5 732.564C1328 745.722 1231.21 773.636 1152.01 780.031L1016.51 789.025C1003.85 792.856 975.214 802.916 962.015 812.509C951.349 821.669 923.816 836.692 899.017 823.501L820.519 799.018" stroke="#F7D417" stroke-width="10"/>
<path d="M479.53 83.0134L699.023 241.404C712.023 248.899 734.122 282.875 718.523 358.823C712.856 375.977 706.323 420.98 725.522 463.75L829.519 589.163C838.685 599.989 851.518 623.64 829.519 631.634L749.522 660.614C740.689 664.778 728.322 677.302 749.522 694.091C773.354 708.414 835.019 733.364 891.017 718.574L1254.01 296.866C1259.17 275.38 1260.51 230.811 1224.51 224.416L1159.01 218.42C1147.68 213.756 1125.91 197.934 1129.51 171.952C1134.01 139.474 1150.51 136.476 1177.01 133.479L1308.5 191.938C1335.17 210.925 1389.7 262.789 1394.5 318.351L1432 660.614C1431.5 675.937 1417.7 711.779 1366.5 732.564C1328 745.722 1231.21 773.636 1152.01 780.031L1016.51 789.025C1003.85 792.856 975.214 802.916 962.015 812.509" stroke="#F7D417" stroke-width="10"/>
<path d="M479.53 83.0134L699.023 241.404C712.023 248.899 734.122 282.875 718.523 358.823C712.856 375.977 706.323 420.98 725.522 463.75L829.519 589.163C838.685 599.989 851.518 623.64 829.519 631.634L749.522 660.614C740.689 664.778 728.322 677.302 749.522 694.091C773.354 708.414 835.019 733.364 891.017 718.574L1254.01 296.866C1259.17 275.38 1260.51 230.811 1224.51 224.416L1159.01 218.42C1147.68 213.756 1125.91 197.934 1129.51 171.952C1134.01 139.474 1150.51 136.476 1177.01 133.479L1308.5 191.938C1335.17 210.925 1389.7 262.789 1394.5 318.351L1432 660.614" stroke="#F7D417" stroke-width="10"/>
<path d="M479.53 83.0134L699.023 241.404C712.023 248.899 734.122 282.875 718.523 358.823C712.856 375.977 706.323 420.98 725.522 463.75L829.519 589.163C838.685 599.989 851.518 623.64 829.519 631.634L749.522 660.614C740.688 664.778 728.322 677.302 749.522 694.091C773.354 708.414 835.019 733.364 891.017 718.574L1254.01 296.866C1259.17 275.38 1260.51 230.811 1224.51 224.416L1159.01 218.42C1147.68 213.756 1125.91 197.934 1129.51 171.952C1134.01 139.474 1150.51 136.476 1177.01 133.479L1308.5 191.938" stroke="#F7D417" stroke-width="10"/>
<path d="M479.53 83.0134L699.023 241.404C712.023 248.899 734.122 282.875 718.523 358.823C712.856 375.977 706.323 420.98 725.522 463.75L829.519 589.163C838.685 599.989 851.518 623.64 829.519 631.634L749.522 660.614C740.689 664.778 728.322 677.302 749.522 694.091C773.354 708.414 835.019 733.364 891.017 718.574L1254.01 296.866C1259.17 275.38 1260.51 230.811 1224.51 224.416L1159.01 218.42C1147.68 213.756 1125.91 197.934 1129.51 171.952C1134.01 139.474 1150.51 136.476 1177.01 133.479" stroke="#F7D417" stroke-width="10"/>
<path d="M479.53 83.0134L699.023 241.404C712.023 248.899 734.122 282.875 718.523 358.823C712.856 375.977 706.323 420.98 725.522 463.75L829.519 589.163C838.685 599.989 851.518 623.64 829.519 631.634L749.522 660.614C740.689 664.778 728.322 677.302 749.522 694.091C773.354 708.414 835.019 733.364 891.017 718.574L1254.01 296.866" stroke="#F7D417" stroke-width="10"/>
<path d="M479.53 83.0134L699.023 241.404C712.023 248.899 734.122 282.875 718.523 358.823C712.856 375.977 706.323 420.98 725.522 463.75L829.519 589.163C838.685 599.989 851.518 623.64 829.519 631.634L749.522 660.614C740.689 664.778 728.322 677.302 749.522 694.091C773.354 708.414 835.019 733.364 891.017 718.574" stroke="#F7D417" stroke-width="10"/>
<path d="M479.53 83.0134L699.023 241.404C712.023 248.899 734.122 282.875 718.523 358.823C712.856 375.977 706.323 420.98 725.522 463.75L829.519 589.163" stroke="#F7D417" stroke-width="10"/>
<path d="M479.53 83.0134L699.023 241.404" stroke="#F7D417" stroke-width="10"/>
<circle cx="267" cy="44" r="15" fill="#6D00CC"/>
<circle cx="267" cy="147" r="15" fill="#6D00CC"/>
<circle cx="100" cy="491" r="15" fill="#6D00CC"/>
<circle cx="654" cy="828" r="15" fill="#6D00CC"/>
<circle cx="819" cy="800" r="15" fill="#6D00CC"/>
<circle cx="962" cy="813" r="15" fill="#6D00CC"/>
<circle cx="1431" cy="661" r="15" fill="#6D00CC"/>
<circle cx="1303" cy="189" r="15" fill="#6D00CC"/>
<circle cx="1175" cy="134" r="15" fill="#6D00CC"/>
<circle cx="1254" cy="297" r="15" fill="#6D00CC"/>
<circle cx="891" cy="718" r="15" fill="#6D00CC"/>
<circle cx="829" cy="589" r="15" fill="#6D00CC"/>
<circle cx="698" cy="241" r="15" fill="#6D00CC"/>
<circle cx="479" cy="83" r="15" fill="#6D00CC"/>
</svg>
