<svg width="1438" height="855" viewBox="0 0 1438 855" fill="none" xmlns="http://www.w3.org/2000/svg">
<path d="M51 319.483C48.4685 321.144 45.5583 322.328 43.2659 324M43.2659 324C-46.0833 389.17 43.4759 462.075 101 491L559 724.5C615.4 748.1 643.833 801 651 824.5C693.8 868.9 738.833 843 756 824.5C770.4 804.5 805.333 799.833 821 800L899.5 824.5C924.3 837.7 951.833 822.667 962.5 813.5C975.7 803.9 1004.33 793.833 1017 790L1152.5 781C1231.7 774.6 1328.5 746.667 1367 733.5C1418.2 712.7 1432 676.833 1432.5 661.5L1395 319C1390.2 263.4 1335.67 211.5 1309 192.5L1177.5 134C1151 137 1134.5 140 1130 172.5C1126.4 198.5 1148.17 214.333 1159.5 219L1225 225C1261 231.4 1259.67 276 1254.5 297.5L891.5 719.5C835.5 734.3 773.833 709.333 750 695C728.8 678.2 741.167 665.667 750 661.5L830 632.5C852 624.5 839.167 600.833 830 590L726 464.5C706.8 421.7 713.333 376.667 719 359.5C734.6 283.5 712.5 249.5 699.5 242L480 83.5L362 5.5C325.6 3.9 284.833 31.1667 269 45C228.5 80.5 248.5 89.5 269 109.5C285.4 125.5 275.833 139.833 269 145L154.5 252C141.3 265.6 74.844 305.667 43.2659 324Z" stroke="#FAFAFA" stroke-width="10"/>
</svg>
