<?xml version="1.0" encoding="utf-8"?><svg xmlns="http://www.w3.org/2000/svg" xmlns:xlink="http://www.w3.org/1999/xlink"><symbol viewBox="0 0 200 59" id="logo-heaj" xmlns="http://www.w3.org/2000/svg"><defs><path id="aa" d="M60.7 25.4c0-3.4-2.8-6.2-6.2-6.2-3.4 0-6.2 2.8-6.2 6.2 0 3.4 2.8 6.2 6.2 6.2 3.4 0 6.2-2.8 6.2-6.2"/></defs><clipPath id="ab"><use xlink:href="#aa" overflow="visible"/></clipPath><g style="clip-path:url(#ab)"><defs><path id="ac" d="M0 0h201v58.6H0z"/></defs><clipPath id="ad"><use xlink:href="#ac" overflow="visible"/></clipPath><path d="M43.3 14.1h22.3v22.4H43.3z" style="clip-path:url(#ad);fill:#fff"/></g><defs><path id="ae" d="M60.7 44.5c0-3.4-2.8-6.2-6.2-6.2-3.4 0-6.2 2.8-6.2 6.2 0 3.4 2.8 6.2 6.2 6.2 3.4 0 6.2-2.7 6.2-6.2"/></defs><clipPath id="af"><use xlink:href="#ae" overflow="visible"/></clipPath><g style="clip-path:url(#af)"><defs><path id="ag" d="M0 0h201v58.6H0z"/></defs><clipPath id="ah"><use xlink:href="#ag" overflow="visible"/></clipPath><path d="M43.3 33.3h22.3v22.4H43.3z" style="clip-path:url(#ah);fill:#fff"/></g><defs><path id="ai" d="M60.7 6.2c0-3.4-2.8-6.2-6.2-6.2-3.4 0-6.2 2.8-6.2 6.2 0 3.4 2.8 6.2 6.2 6.2 3.4 0 6.2-2.7 6.2-6.2"/></defs><clipPath id="aj"><use xlink:href="#ai" overflow="visible"/></clipPath><g style="clip-path:url(#aj)"><defs><path id="ak" d="M0 0h201v58.6H0z"/></defs><clipPath id="al"><use xlink:href="#ak" overflow="visible"/></clipPath><path d="M43.3-5h22.3v22.4H43.3z" style="clip-path:url(#al);fill:#fff"/></g><defs><path id="am" d="M6.6 49.8H1L0 32.9V0h7.6v32.9z"/></defs><clipPath id="an"><use xlink:href="#am" overflow="visible"/></clipPath><g style="clip-path:url(#an)"><defs><path id="ao" d="M0 0h201v58.6H0z"/></defs><clipPath id="ap"><use xlink:href="#ao" overflow="visible"/></clipPath><path d="M-5-5h17.6v59.8H-5z" style="clip-path:url(#ap);fill:#eb302e"/></g><defs><path id="aq" d="M37.9 49.8h-5.7l-.9-16.9V0h7.6v32.9z"/></defs><clipPath id="ar"><use xlink:href="#aq" overflow="visible"/></clipPath><g style="clip-path:url(#ar)"><defs><path id="as" d="M0 0h201v58.6H0z"/></defs><clipPath id="at"><use xlink:href="#as" overflow="visible"/></clipPath><path d="M26.3-5h17.6v59.8H26.3z" style="clip-path:url(#at);fill:#fff"/></g><defs><path id="au" d="M132.7 49.8H127l-.9-18.4V0h7.5v31.4z"/></defs><clipPath id="av"><use xlink:href="#au" overflow="visible"/></clipPath><g style="clip-path:url(#av)"><defs><path id="aw" d="M0 0h201v58.6H0z"/></defs><clipPath id="ax"><use xlink:href="#aw" overflow="visible"/></clipPath><path d="M121.1-5h17.6v59.8h-17.6z" style="clip-path:url(#ax);fill:#fff"/></g><defs><path id="ay" d="M79.5 49.8H72L92.1 0h7.4z"/></defs><clipPath id="az"><use xlink:href="#ay" overflow="visible"/></clipPath><g style="clip-path:url(#az)"><defs><path id="aA" d="M0 0h201v58.6H0z"/></defs><clipPath id="aB"><use xlink:href="#aA" overflow="visible"/></clipPath><path d="M67-5h37.5v59.8H67z" style="clip-path:url(#aB);fill:#fff"/></g><defs><path id="aC" d="M25.6 25.4c0-3.4-2.8-6.2-6.2-6.2-3.4 0-6.2 2.8-6.2 6.2 0 3.4 2.8 6.2 6.2 6.2 3.4 0 6.2-2.8 6.2-6.2"/></defs><clipPath id="aD"><use xlink:href="#aC" overflow="visible"/></clipPath><g style="clip-path:url(#aD)"><defs><path id="aE" d="M0 0h201v58.6H0z"/></defs><clipPath id="aF"><use xlink:href="#aE" overflow="visible"/></clipPath><path d="M8.3 14.1h22.3v22.4H8.3z" style="clip-path:url(#aF);fill:#eb302e"/></g><defs><path id="aG" d="M120.3 58.3c-6.4 1-13.4-4-14-10-.7-6 4-10.8 9.8-9.9 4.7.7 6.6 6 4.2 9.6-2.6 3.7-7.4 2.9-10 2.2-1.1-.4-1.8-.1-1.3.9 1.1 2.6 5.3 6.8 11.2 6.4l.1.8z"/></defs><clipPath id="aH"><use xlink:href="#aG" overflow="visible"/></clipPath><g style="clip-path:url(#aH)"><defs><path id="aI" d="M0 0h201v58.6H0z"/></defs><clipPath id="aJ"><use xlink:href="#aI" overflow="visible"/></clipPath><path d="M101.2 33.3h25.2v30.1h-25.2z" style="clip-path:url(#aJ);fill:#fff"/></g><defs><path id="aK" d="M197 48.9c1.1 0 1.4-.7 1.4-2.1v-1c0-1.4-.4-2.1-1.4-2.1h-1.2v5.2h1.2zm0 1.4h-2.8v-8h2.8c1.8 0 3 .9 3 3.5v1c0 2.6-1.2 3.5-3 3.5zm-8.2-4.5h1.1c.9 0 1.5-.2 1.5-1s-.5-1.1-1.5-1.1h-1.1v2.1zm4.4 4.5h-1.7l-1.4-3.1h-1.3v3.1h-1.6v-8h2.8c1.8 0 2.9.8 2.9 2.4 0 1.1-.5 1.8-1.3 2.1l1.6 3.5zM183 44.6l-.9 2.8h1.8l-.9-2.8zm-1.8 5.7h-1.7l2.7-8h1.5l2.7 8h-1.7l-.5-1.5h-2.6l-.4 1.5zm-3.9-8V47c0 1.4-.4 2-1.4 2-1 0-1.4-.6-1.4-2v-4.7h-1.6V47c0 2.3 1.3 3.3 3 3.3s3-1 3-3.3v-4.7h-1.6zm-10.2 3.4v1.1c0 1.5.5 2.2 1.4 2.2.3 0 .5-.1.7-.2l-.9-.8.9-1 .7.6c0-.2.1-.5.1-.8v-1.1c0-1.5-.5-2.2-1.4-2.2-1.1.1-1.5.7-1.5 2.2zm4.4 1.2c0 .8-.1 1.4-.4 1.9l1.1.9-.8 1-1.1-.9c-.5.4-1.1.6-1.8.6-1.8 0-3-1.1-3-3.5v-1.1c0-2.5 1.2-3.5 3-3.5s3 1.1 3 3.5v1.1zm-6.8-2.1c-.3-1.7-1.3-2.6-2.9-2.6-1.8 0-3 1.1-3 3.5v1.1c0 2.4 1.2 3.5 3 3.5 1.6 0 2.6-.8 2.9-2.6h-1.5c-.2.8-.6 1.2-1.3 1.2-.9 0-1.4-.7-1.4-2.2v-1.1c0-1.5.5-2.2 1.4-2.2.8 0 1.2.5 1.3 1.2h1.5zm-9.6-.2-.9 2.8h1.8l-.9-2.8zm-1.8 5.7h-1.7l2.7-8h1.5l2.7 8h-1.7l-.5-1.5h-2.6l-.4 1.5zm-7.3-1.1c.5.8 1.4 1.2 2.5 1.2 1.6 0 2.7-.9 2.7-3.2v-4.9h-1.6v4.9c0 1.4-.4 1.8-1.2 1.8-.4 0-.8-.2-1.1-.6l-1.3.8zm32.5-20.3v1.4h2.2v6.6h1.6v-6.6h2.2v-1.4h-6zm-4.7 3.4h1.1c.9 0 1.5-.2 1.5-1s-.5-1.1-1.5-1.1h-1.1v2.1zm4.5 4.5h-1.7l-1.4-3.1h-1.3v3.1h-1.6v-8h2.8c1.8 0 2.9.8 2.9 2.4 0 1.1-.5 1.8-1.3 2.1l1.6 3.5zm-12-7.9v8h4.9v-1.4h-3.3v-2.1h2.9V32h-2.9v-1.8h3.3v-1.4h-4.9zm-5.3 1.3V32h1.1c.9 0 1.2-.3 1.2-.9 0-.6-.3-.9-1.4-.9h-.9zm0 3.2v2.1h1.1c1 0 1.4-.4 1.4-1.1 0-.8-.5-1-1.6-1h-.9zm-1.6-4.5h2.6c1.8 0 2.9.7 2.9 2.1 0 .8-.4 1.4-1 1.7.8.3 1.3.9 1.3 1.9 0 1.2-.8 2.3-2.9 2.3h-2.9v-8zm-4.1 0h-1.6v8h4.9v-1.4h-3.3v-6.6zm-5.8 2.2-.9 2.8h1.8l-.9-2.8zm-1.8 5.7H146l2.7-8h1.5l2.7 8h-1.7l-.5-1.5h-2.6l-.4 1.5zm24.5-21.4v8h4.7v-.9h-3.7v-2.8h3.4v-.9h-3.4v-2.5h3.7v-.9h-4.7zm-4.7 0h-1v8h4.7v-.9h-3.7v-7.1zm-7.2 3.5v.9c0 2 .7 2.7 1.9 2.7s1.9-.8 1.9-2.7v-.9c0-2-.7-2.7-1.9-2.7-1.3 0-1.9.8-1.9 2.7zm4.7.9c0 2.6-1.1 3.6-2.8 3.6s-2.8-1.1-2.8-3.6v-.9c0-2.6 1.1-3.6 2.8-3.6s2.8 1.1 2.8 3.6v.9zm-6.6-1.9c-.2-1.7-1.3-2.6-2.8-2.6-1.7 0-2.8 1.1-2.8 3.6v.9c0 2.6 1.1 3.6 2.8 3.6 1.5 0 2.5-.8 2.8-2.6h-.9c-.3 1.2-.8 1.7-1.9 1.7-1.2 0-1.9-.8-1.9-2.7v-.9c0-2 .7-2.7 1.9-2.7 1 0 1.6.4 1.9 1.7h.9zm-9.6-3.2h.9l1.2-1.5h-1.1l-1 1.5zm-1.8.7v8h4.7v-.9H148v-2.8h3.4v-.9H148v-2.5h3.7v-.9H147zm27.2-13.5v8h4.7V9h-3.7V6.2h3.4v-.9h-3.4V2.8h3.7v-.9h-4.7zm-6.8 0v.9h2.4v7.1h1V2.8h2.4v-.9h-5.8zm-2 0v4.7c0 1.7-.7 2.4-1.9 2.4s-1.9-.7-1.9-2.4V1.9h-1v4.7c0 2.3 1.1 3.3 2.8 3.3s2.8-1 2.8-3.3V1.9h-.8zm-8.8 1.5-1.2 3.7h2.5l-1.3-3.7zm-2.2 6.5h-1l2.7-8h.9l2.7 8h-1l-.6-1.8H155l-.6 1.8zm-6.4-8h-1v8h1V6.2h3.4v3.7h1v-8h-1v3.4H148V1.9z"/></defs><clipPath id="aL"><use xlink:href="#aK" overflow="visible"/></clipPath><g style="clip-path:url(#aL)"><defs><path id="aM" d="M0 0h201v58.6H0z"/></defs><clipPath id="aN"><use xlink:href="#aM" overflow="visible"/></clipPath><path d="M141-3.1h64v58.8h-64z" style="clip-path:url(#aN);fill:#fff"/></g></symbol><symbol fill="none" viewBox="0 0 1437 853" id="map" xmlns="http://www.w3.org/2000/svg"><path d="M50.514 318.85c-2.53 1.66-5.412 2.826-7.704 4.497m0 0c-89.347 65.125.21 137.98 57.732 166.885L558.528 723.57c56.398 23.584 84.83 76.448 91.997 99.931 42.798 44.37 87.83 18.488 104.996 0 14.4-19.986 49.332-24.649 64.998-24.483l78.498 24.483c24.799 13.191 52.332-1.832 62.998-10.992 13.199-9.593 41.835-19.653 54.495-23.484l135.5-8.994c79.2-6.395 175.99-34.309 214.49-47.467 51.2-20.785 65-56.627 65.5-71.95l-37.5-342.263c-4.8-55.562-59.33-107.426-86-126.413l-131.49-58.459c-26.5 2.998-43 5.995-47.5 38.473-3.6 25.982 18.17 41.804 29.5 46.468l65.5 5.996c36 6.395 34.66 50.964 29.5 72.45L891.017 718.574c-55.998 14.79-117.663-10.16-141.495-24.483-21.2-16.789-8.834-29.313 0-33.477l79.997-28.98c21.999-7.994 9.166-31.645 0-42.471L725.522 463.75c-19.199-42.77-12.666-87.772-6.999-104.927 15.599-75.948-6.5-109.924-19.5-117.419L479.53 83.014 361.534 5.066c-36.399-1.599-77.165 25.65-92.997 39.473-40.499 35.476-20.5 44.47 0 64.456 16.399 15.988 6.833 30.312 0 35.475L154.04 251.397c-13.199 13.591-79.653 53.63-111.23 71.95Z" stroke="#F7D417" stroke-width="10"/><path d="m479.53 83.013 219.493 158.391c13 7.495 35.099 41.471 19.5 117.419-5.667 17.154-12.2 62.157 6.999 104.927l103.997 125.413c9.166 10.826 21.999 34.477 0 42.471l-79.997 28.98c-8.834 4.164-21.2 16.688 0 33.477 23.832 14.323 85.497 39.273 141.495 24.483l362.993-421.708c5.16-21.486 6.5-66.055-29.5-72.45l-65.5-5.996c-11.33-4.664-33.1-20.486-29.5-46.468 4.5-32.478 21-35.476 47.5-38.473l131.49 58.459c26.67 18.987 81.2 70.851 86 126.413l37.5 342.263c-.5 15.323-14.3 51.165-65.5 71.95-38.5 13.158-135.29 41.072-214.49 47.467l-135.5 8.994c-12.66 3.831-41.296 13.891-54.495 23.484-10.666 9.16-38.199 24.183-62.998 10.992l-78.498-24.483c-15.666-.166-50.598 4.497-64.998 24.483-17.166 18.488-62.198 44.37-104.996 0-7.167-23.483-35.599-76.347-91.997-99.931L100.542 490.232C43.02 461.327-46.537 388.472 42.81 323.347m8.233-4.807c-2.531 1.66-5.941 3.136-8.233 4.807m0 0c31.577-18.32 98.031-58.359 111.23-71.95l114.497-106.926c6.833-5.163 16.399-19.487 0-35.476-20.5-19.986-40.499-28.98 0-64.455" stroke="#F7D417" stroke-width="10"/><path d="m479.53 83.013 219.493 158.391c13 7.495 35.099 41.471 19.5 117.419-5.667 17.154-12.2 62.157 6.999 104.927l103.997 125.413c9.166 10.826 21.999 34.477 0 42.471l-79.997 28.98c-8.834 4.164-21.2 16.688 0 33.477 23.832 14.323 85.497 39.273 141.495 24.483l362.993-421.708c5.16-21.486 6.5-66.055-29.5-72.45l-65.5-5.996c-11.33-4.664-33.1-20.486-29.5-46.468 4.5-32.478 21-35.476 47.5-38.473l131.49 58.459c26.67 18.987 81.2 70.851 86 126.413l37.5 342.263c-.5 15.323-14.3 51.165-65.5 71.95-38.5 13.158-135.29 41.072-214.49 47.467l-135.5 8.994c-12.66 3.831-41.296 13.891-54.495 23.484-10.666 9.16-38.199 24.183-62.998 10.992l-78.498-24.483c-15.666-.166-50.598 4.497-64.998 24.483-17.166 18.488-62.198 44.37-104.996 0-7.167-23.483-35.599-76.347-91.997-99.931L100.542 490.232C43.02 461.327-46.537 388.472 42.81 323.347m7.733-4.514c-2.53 1.66-5.441 2.843-7.733 4.514m0 0c31.577-18.32 98.031-58.359 111.23-71.95l114.497-106.926" stroke="#F7D417" stroke-width="10"/><path d="m479.53 83.013 219.493 158.391c13 7.495 35.099 41.471 19.5 117.419-5.667 17.154-12.2 62.157 6.999 104.927l103.997 125.413c9.166 10.826 21.999 34.477 0 42.471l-79.997 28.98c-8.834 4.164-21.2 16.688 0 33.477 23.832 14.323 85.497 39.273 141.495 24.483l362.993-421.708c5.16-21.486 6.5-66.055-29.5-72.45l-65.5-5.996c-11.33-4.664-33.1-20.486-29.5-46.468 4.5-32.478 21-35.476 47.5-38.473l131.49 58.459c26.67 18.987 81.2 70.851 86 126.413l37.5 342.263c-.5 15.323-14.3 51.165-65.5 71.95-38.5 13.158-135.29 41.072-214.49 47.467l-135.5 8.994c-12.66 3.831-41.296 13.891-54.495 23.484-10.666 9.16-38.199 24.183-62.998 10.992l-78.498-24.483c-15.666-.166-50.598 4.497-64.998 24.483-17.166 18.488-62.198 44.37-104.996 0-7.167-23.483-35.599-76.347-91.997-99.931L100.542 490.232C43.02 461.327-46.537 388.472 42.81 323.347m7.733-4.497c-2.53 1.66-5.441 2.826-7.733 4.497m0 0c31.577-18.32 98.031-58.359 111.23-71.95l114.497-106.926" stroke="#F7D417" stroke-width="10"/><path d="m479.53 83.013 219.493 158.391c13 7.495 35.099 41.471 19.499 117.419-5.666 17.154-12.199 62.157 7 104.927l103.997 125.413c9.166 10.826 21.999 34.477 0 42.471l-79.998 28.98c-8.833 4.164-21.199 16.688 0 33.477 23.833 14.323 85.498 39.273 141.496 24.483l362.993-421.708c5.16-21.486 6.5-66.055-29.5-72.45l-65.5-5.996c-11.33-4.664-33.1-20.486-29.5-46.468 4.5-32.478 21-35.476 47.5-38.473l131.49 58.459c26.67 18.987 81.2 70.851 86 126.413l37.5 342.263c-.5 15.323-14.3 51.165-65.5 71.95-38.5 13.158-135.29 41.072-214.49 47.467l-135.5 8.994c-12.66 3.831-41.296 13.891-54.495 23.484-10.667 9.16-38.199 24.183-62.998 10.992l-78.498-24.483c-15.666-.166-50.598 4.497-64.998 24.483-17.166 18.488-62.198 44.37-104.996 0-7.167-23.483-35.599-76.347-91.998-99.931L100.542 490.232" stroke="#F7D417" stroke-width="10"/><path d="m479.53 83.013 219.493 158.391c13 7.495 35.099 41.471 19.5 117.419-5.667 17.154-12.2 62.157 6.999 104.927l103.997 125.413c9.166 10.826 21.999 34.477 0 42.471l-79.997 28.98c-8.833 4.164-21.2 16.688 0 33.477 23.832 14.323 85.497 39.273 141.495 24.483l362.993-421.708c5.16-21.486 6.5-66.055-29.5-72.45l-65.5-5.996c-11.33-4.664-33.1-20.486-29.5-46.468 4.5-32.478 21-35.476 47.5-38.473l131.49 58.459c26.67 18.987 81.2 70.851 86 126.413l37.5 342.263c-.5 15.323-14.3 51.165-65.5 71.95-38.5 13.158-135.29 41.072-214.49 47.467l-135.5 8.994c-12.66 3.831-41.296 13.891-54.495 23.484-10.666 9.16-38.199 24.183-62.998 10.992l-78.498-24.483c-15.666-.166-50.598 4.497-64.998 24.483-17.166 18.488-62.198 44.37-104.996 0" stroke="#F7D417" stroke-width="10"/><path d="m479.53 83.013 219.493 158.391c13 7.495 35.099 41.471 19.5 117.419-5.667 17.154-12.2 62.157 6.999 104.927l103.997 125.413c9.166 10.826 21.999 34.477 0 42.471l-79.997 28.98c-8.833 4.164-21.2 16.688 0 33.477 23.832 14.323 85.497 39.273 141.495 24.483l362.993-421.708c5.16-21.486 6.5-66.055-29.5-72.45l-65.5-5.996c-11.33-4.664-33.1-20.486-29.5-46.468 4.5-32.478 21-35.476 47.5-38.473l131.49 58.459c26.67 18.987 81.2 70.851 86 126.413l37.5 342.263c-.5 15.323-14.3 51.165-65.5 71.95-38.5 13.158-135.29 41.072-214.49 47.467l-135.5 8.994c-12.66 3.831-41.296 13.891-54.495 23.484-10.666 9.16-38.199 24.183-62.998 10.992l-78.498-24.483" stroke="#F7D417" stroke-width="10"/><path d="m479.53 83.013 219.493 158.391c13 7.495 35.099 41.471 19.5 117.419-5.667 17.154-12.2 62.157 6.999 104.927l103.997 125.413c9.166 10.826 21.999 34.477 0 42.471l-79.997 28.98c-8.833 4.164-21.2 16.688 0 33.477 23.832 14.323 85.497 39.273 141.495 24.483l362.993-421.708c5.16-21.486 6.5-66.055-29.5-72.45l-65.5-5.996c-11.33-4.664-33.1-20.486-29.5-46.468 4.5-32.478 21-35.476 47.5-38.473l131.49 58.459c26.67 18.987 81.2 70.851 86 126.413l37.5 342.263c-.5 15.323-14.3 51.165-65.5 71.95-38.5 13.158-135.29 41.072-214.49 47.467l-135.5 8.994c-12.66 3.831-41.296 13.891-54.495 23.484" stroke="#F7D417" stroke-width="10"/><path d="m479.53 83.013 219.493 158.391c13 7.495 35.099 41.471 19.5 117.419-5.667 17.154-12.2 62.157 6.999 104.927l103.997 125.413c9.166 10.826 21.999 34.477 0 42.471l-79.997 28.98c-8.833 4.164-21.2 16.688 0 33.477 23.832 14.323 85.497 39.273 141.495 24.483l362.993-421.708c5.16-21.486 6.5-66.055-29.5-72.45l-65.5-5.996c-11.33-4.664-33.1-20.486-29.5-46.468 4.5-32.478 21-35.476 47.5-38.473l131.49 58.459c26.67 18.987 81.2 70.851 86 126.413l37.5 342.263" stroke="#F7D417" stroke-width="10"/><path d="m479.53 83.013 219.493 158.391c13 7.495 35.099 41.471 19.5 117.419-5.667 17.154-12.2 62.157 6.999 104.927l103.997 125.413c9.166 10.826 21.999 34.477 0 42.471l-79.997 28.98c-8.834 4.164-21.2 16.688 0 33.477 23.832 14.323 85.497 39.273 141.495 24.483l362.993-421.708c5.16-21.486 6.5-66.055-29.5-72.45l-65.5-5.996c-11.33-4.664-33.1-20.486-29.5-46.468 4.5-32.478 21-35.476 47.5-38.473l131.49 58.459" stroke="#F7D417" stroke-width="10"/><path d="m479.53 83.013 219.493 158.391c13 7.495 35.099 41.471 19.5 117.419-5.667 17.154-12.2 62.157 6.999 104.927l103.997 125.413c9.166 10.826 21.999 34.477 0 42.471l-79.997 28.98c-8.833 4.164-21.2 16.688 0 33.477 23.832 14.323 85.497 39.273 141.495 24.483l362.993-421.708c5.16-21.486 6.5-66.055-29.5-72.45l-65.5-5.996c-11.33-4.664-33.1-20.486-29.5-46.468 4.5-32.478 21-35.476 47.5-38.473" stroke="#F7D417" stroke-width="10"/><path d="m479.53 83.013 219.493 158.391c13 7.495 35.099 41.471 19.5 117.419-5.667 17.154-12.2 62.157 6.999 104.927l103.997 125.413c9.166 10.826 21.999 34.477 0 42.471l-79.997 28.98c-8.833 4.164-21.2 16.688 0 33.477 23.832 14.323 85.497 39.273 141.495 24.483l362.993-421.708" stroke="#F7D417" stroke-width="10"/><path d="m479.53 83.013 219.493 158.391c13 7.495 35.099 41.471 19.5 117.419-5.667 17.154-12.2 62.157 6.999 104.927l103.997 125.413c9.166 10.826 21.999 34.477 0 42.471l-79.997 28.98c-8.833 4.164-21.2 16.688 0 33.477 23.832 14.323 85.497 39.273 141.495 24.483" stroke="#F7D417" stroke-width="10"/><path d="m479.53 83.013 219.493 158.391c13 7.495 35.099 41.471 19.5 117.419-5.667 17.154-12.2 62.157 6.999 104.927l103.997 125.413M479.53 83.013l219.493 158.391" stroke="#F7D417" stroke-width="10"/></symbol><symbol fill="none" viewBox="0 0 1446 853" id="map-points" xmlns="http://www.w3.org/2000/svg"><path d="M50.514 318.85c-2.53 1.66-5.412 2.826-7.704 4.497m0 0c-89.347 65.125.21 137.98 57.732 166.885L558.528 723.57c56.398 23.584 84.83 76.448 91.997 99.931 42.798 44.37 87.83 18.488 104.996 0 14.4-19.986 49.332-24.649 64.998-24.483l78.498 24.483c24.799 13.191 52.332-1.832 62.998-10.992 13.199-9.593 41.835-19.653 54.495-23.484l135.5-8.994c79.2-6.395 175.99-34.309 214.49-47.467 51.2-20.785 65-56.627 65.5-71.95l-37.5-342.263c-4.8-55.562-59.33-107.426-86-126.413l-131.49-58.459c-26.5 2.998-43 5.995-47.5 38.473-3.6 25.982 18.17 41.804 29.5 46.468l65.5 5.996c36 6.395 34.66 50.964 29.5 72.45L891.017 718.574c-55.998 14.79-117.663-10.16-141.495-24.483-21.2-16.789-8.834-29.313 0-33.477l79.997-28.98c21.999-7.994 9.166-31.645 0-42.471L725.522 463.75c-19.199-42.77-12.666-87.772-6.999-104.927 15.599-75.948-6.5-109.924-19.5-117.419L479.53 83.014 361.534 5.066c-36.399-1.599-77.165 25.65-92.997 39.473-40.499 35.476-20.5 44.47 0 64.456 16.399 15.988 6.833 30.312 0 35.475L154.04 251.397c-13.199 13.591-79.653 53.63-111.23 71.95Z" stroke="#F7D417" stroke-width="10"/><path d="m479.53 83.013 219.493 158.391c13 7.495 35.099 41.471 19.5 117.419-5.667 17.154-12.2 62.157 6.999 104.927l103.997 125.413c9.166 10.826 21.999 34.477 0 42.471l-79.997 28.98c-8.834 4.164-21.2 16.688 0 33.477 23.832 14.323 85.497 39.273 141.495 24.483l362.993-421.708c5.16-21.486 6.5-66.055-29.5-72.45l-65.5-5.996c-11.33-4.664-33.1-20.486-29.5-46.468 4.5-32.478 21-35.476 47.5-38.473l131.49 58.459c26.67 18.987 81.2 70.851 86 126.413l37.5 342.263c-.5 15.323-14.3 51.165-65.5 71.95-38.5 13.158-135.29 41.072-214.49 47.467l-135.5 8.994c-12.66 3.831-41.296 13.891-54.495 23.484-10.666 9.16-38.199 24.183-62.998 10.992l-78.498-24.483c-15.666-.166-50.598 4.497-64.998 24.483-17.166 18.488-62.198 44.37-104.996 0-7.167-23.483-35.599-76.347-91.997-99.931L100.542 490.232C43.02 461.327-46.537 388.472 42.81 323.347m8.233-4.807c-2.531 1.66-5.941 3.136-8.233 4.807m0 0c31.577-18.32 98.031-58.359 111.23-71.95l114.497-106.926c6.833-5.163 16.399-19.487 0-35.476-20.5-19.986-40.499-28.98 0-64.455" stroke="#F7D417" stroke-width="10"/><path d="m479.53 83.013 219.493 158.391c13 7.495 35.099 41.471 19.5 117.419-5.667 17.154-12.2 62.157 6.999 104.927l103.997 125.413c9.166 10.826 21.999 34.477 0 42.471l-79.997 28.98c-8.834 4.164-21.2 16.688 0 33.477 23.832 14.323 85.497 39.273 141.495 24.483l362.993-421.708c5.16-21.486 6.5-66.055-29.5-72.45l-65.5-5.996c-11.33-4.664-33.1-20.486-29.5-46.468 4.5-32.478 21-35.476 47.5-38.473l131.49 58.459c26.67 18.987 81.2 70.851 86 126.413l37.5 342.263c-.5 15.323-14.3 51.165-65.5 71.95-38.5 13.158-135.29 41.072-214.49 47.467l-135.5 8.994c-12.66 3.831-41.296 13.891-54.495 23.484-10.666 9.16-38.199 24.183-62.998 10.992l-78.498-24.483c-15.666-.166-50.598 4.497-64.998 24.483-17.166 18.488-62.198 44.37-104.996 0-7.167-23.483-35.599-76.347-91.997-99.931L100.542 490.232C43.02 461.327-46.537 388.472 42.81 323.347m7.733-4.514c-2.53 1.66-5.441 2.843-7.733 4.514m0 0c31.577-18.32 98.031-58.359 111.23-71.95l114.497-106.926" stroke="#F7D417" stroke-width="10"/><path d="m479.53 83.013 219.493 158.391c13 7.495 35.099 41.471 19.5 117.419-5.667 17.154-12.2 62.157 6.999 104.927l103.997 125.413c9.166 10.826 21.999 34.477 0 42.471l-79.997 28.98c-8.834 4.164-21.2 16.688 0 33.477 23.832 14.323 85.497 39.273 141.495 24.483l362.993-421.708c5.16-21.486 6.5-66.055-29.5-72.45l-65.5-5.996c-11.33-4.664-33.1-20.486-29.5-46.468 4.5-32.478 21-35.476 47.5-38.473l131.49 58.459c26.67 18.987 81.2 70.851 86 126.413l37.5 342.263c-.5 15.323-14.3 51.165-65.5 71.95-38.5 13.158-135.29 41.072-214.49 47.467l-135.5 8.994c-12.66 3.831-41.296 13.891-54.495 23.484-10.666 9.16-38.199 24.183-62.998 10.992l-78.498-24.483c-15.666-.166-50.598 4.497-64.998 24.483-17.166 18.488-62.198 44.37-104.996 0-7.167-23.483-35.599-76.347-91.997-99.931L100.542 490.232C43.02 461.327-46.537 388.472 42.81 323.347m7.733-4.497c-2.53 1.66-5.441 2.826-7.733 4.497m0 0c31.577-18.32 98.031-58.359 111.23-71.95l114.497-106.926" stroke="#F7D417" stroke-width="10"/><path d="m479.53 83.013 219.493 158.391c13 7.495 35.099 41.471 19.5 117.419-5.667 17.154-12.2 62.157 6.999 104.927l103.997 125.413c9.166 10.826 21.999 34.477 0 42.471l-79.997 28.98c-8.833 4.164-21.2 16.688 0 33.477 23.832 14.323 85.497 39.273 141.495 24.483l362.993-421.708c5.16-21.486 6.5-66.055-29.5-72.45l-65.5-5.996c-11.33-4.664-33.1-20.486-29.5-46.468 4.5-32.478 21-35.476 47.5-38.473l131.49 58.459c26.67 18.987 81.2 70.851 86 126.413l37.5 342.263c-.5 15.323-14.3 51.165-65.5 71.95-38.5 13.158-135.29 41.072-214.49 47.467l-135.5 8.994c-12.66 3.831-41.296 13.891-54.495 23.484-10.666 9.16-38.199 24.183-62.998 10.992l-78.498-24.483c-15.666-.166-50.598 4.497-64.998 24.483-17.166 18.488-62.198 44.37-104.996 0-7.167-23.483-35.599-76.347-91.997-99.931L100.542 490.232" stroke="#F7D417" stroke-width="10"/><path d="m479.53 83.013 219.493 158.391c13 7.495 35.099 41.471 19.5 117.419-5.667 17.154-12.2 62.157 6.999 104.927l103.997 125.413c9.166 10.826 21.999 34.477 0 42.471l-79.997 28.98c-8.833 4.164-21.2 16.688 0 33.477 23.832 14.323 85.497 39.273 141.495 24.483l362.993-421.708c5.16-21.486 6.5-66.055-29.5-72.45l-65.5-5.996c-11.33-4.664-33.1-20.486-29.5-46.468 4.5-32.478 21-35.476 47.5-38.473l131.49 58.459c26.67 18.987 81.2 70.851 86 126.413l37.5 342.263c-.5 15.323-14.3 51.165-65.5 71.95-38.5 13.158-135.29 41.072-214.49 47.467l-135.5 8.994c-12.66 3.831-41.296 13.891-54.495 23.484-10.666 9.16-38.199 24.183-62.998 10.992l-78.498-24.483c-15.666-.166-50.598 4.497-64.998 24.483-17.166 18.488-62.198 44.37-104.996 0" stroke="#F7D417" stroke-width="10"/><path d="m479.53 83.013 219.493 158.391c13 7.495 35.099 41.471 19.5 117.419-5.667 17.154-12.2 62.157 6.999 104.927l103.997 125.413c9.166 10.826 21.999 34.477 0 42.471l-79.997 28.98c-8.833 4.164-21.2 16.688 0 33.477 23.832 14.323 85.497 39.273 141.495 24.483l362.993-421.708c5.16-21.486 6.5-66.055-29.5-72.45l-65.5-5.996c-11.33-4.664-33.1-20.486-29.5-46.468 4.5-32.478 21-35.476 47.5-38.473l131.49 58.459c26.67 18.987 81.2 70.851 86 126.413l37.5 342.263c-.5 15.323-14.3 51.165-65.5 71.95-38.5 13.158-135.29 41.072-214.49 47.467l-135.5 8.994c-12.66 3.831-41.296 13.891-54.495 23.484-10.666 9.16-38.199 24.183-62.998 10.992l-78.498-24.483" stroke="#F7D417" stroke-width="10"/><path d="m479.53 83.013 219.493 158.391c13 7.495 35.099 41.471 19.5 117.419-5.667 17.154-12.2 62.157 6.999 104.927l103.997 125.413c9.166 10.826 21.999 34.477 0 42.471l-79.997 28.98c-8.833 4.164-21.2 16.688 0 33.477 23.832 14.323 85.497 39.273 141.495 24.483l362.993-421.708c5.16-21.486 6.5-66.055-29.5-72.45l-65.5-5.996c-11.33-4.664-33.1-20.486-29.5-46.468 4.5-32.478 21-35.476 47.5-38.473l131.49 58.459c26.67 18.987 81.2 70.851 86 126.413l37.5 342.263c-.5 15.323-14.3 51.165-65.5 71.95-38.5 13.158-135.29 41.072-214.49 47.467l-135.5 8.994c-12.66 3.831-41.296 13.891-54.495 23.484" stroke="#F7D417" stroke-width="10"/><path d="m479.53 83.013 219.493 158.391c13 7.495 35.099 41.471 19.5 117.419-5.667 17.154-12.2 62.157 6.999 104.927l103.997 125.413c9.166 10.826 21.999 34.477 0 42.471l-79.997 28.98c-8.833 4.164-21.2 16.688 0 33.477 23.832 14.323 85.497 39.273 141.495 24.483l362.993-421.708c5.16-21.486 6.5-66.055-29.5-72.45l-65.5-5.996c-11.33-4.664-33.1-20.486-29.5-46.468 4.5-32.478 21-35.476 47.5-38.473l131.49 58.459c26.67 18.987 81.2 70.851 86 126.413l37.5 342.263" stroke="#F7D417" stroke-width="10"/><path d="m479.53 83.013 219.493 158.391c13 7.495 35.099 41.471 19.5 117.419-5.667 17.154-12.2 62.157 6.999 104.927l103.997 125.413c9.166 10.826 21.999 34.477 0 42.471l-79.997 28.98c-8.834 4.164-21.2 16.688 0 33.477 23.832 14.323 85.497 39.273 141.495 24.483l362.993-421.708c5.16-21.486 6.5-66.055-29.5-72.45l-65.5-5.996c-11.33-4.664-33.1-20.486-29.5-46.468 4.5-32.478 21-35.476 47.5-38.473l131.49 58.459" stroke="#F7D417" stroke-width="10"/><path d="m479.53 83.013 219.493 158.391c13 7.495 35.099 41.471 19.5 117.419-5.667 17.154-12.2 62.157 6.999 104.927l103.997 125.413c9.166 10.826 21.999 34.477 0 42.471l-79.997 28.98c-8.833 4.164-21.2 16.688 0 33.477 23.832 14.323 85.497 39.273 141.495 24.483l362.993-421.708c5.16-21.486 6.5-66.055-29.5-72.45l-65.5-5.996c-11.33-4.664-33.1-20.486-29.5-46.468 4.5-32.478 21-35.476 47.5-38.473" stroke="#F7D417" stroke-width="10"/><path d="m479.53 83.013 219.493 158.391c13 7.495 35.099 41.471 19.5 117.419-5.667 17.154-12.2 62.157 6.999 104.927l103.997 125.413c9.166 10.826 21.999 34.477 0 42.471l-79.997 28.98c-8.833 4.164-21.2 16.688 0 33.477 23.832 14.323 85.497 39.273 141.495 24.483l362.993-421.708" stroke="#F7D417" stroke-width="10"/><path d="m479.53 83.013 219.493 158.391c13 7.495 35.099 41.471 19.5 117.419-5.667 17.154-12.2 62.157 6.999 104.927l103.997 125.413c9.166 10.826 21.999 34.477 0 42.471l-79.997 28.98c-8.833 4.164-21.2 16.688 0 33.477 23.832 14.323 85.497 39.273 141.495 24.483" stroke="#F7D417" stroke-width="10"/><path d="m479.53 83.013 219.493 158.391c13 7.495 35.099 41.471 19.5 117.419-5.667 17.154-12.2 62.157 6.999 104.927l103.997 125.413M479.53 83.013l219.493 158.391" stroke="#F7D417" stroke-width="10"/><circle cx="267" cy="44" r="15" fill="#6D00CC"/><circle cx="267" cy="147" r="15" fill="#6D00CC"/><circle cx="100" cy="491" r="15" fill="#6D00CC"/><circle cx="654" cy="828" r="15" fill="#6D00CC"/><circle cx="819" cy="800" r="15" fill="#6D00CC"/><circle cx="962" cy="813" r="15" fill="#6D00CC"/><circle cx="1431" cy="661" r="15" fill="#6D00CC"/><circle cx="1303" cy="189" r="15" fill="#6D00CC"/><circle cx="1175" cy="134" r="15" fill="#6D00CC"/><circle cx="1254" cy="297" r="15" fill="#6D00CC"/><circle cx="891" cy="718" r="15" fill="#6D00CC"/><circle cx="829" cy="589" r="15" fill="#6D00CC"/><circle cx="698" cy="241" r="15" fill="#6D00CC"/><circle cx="479" cy="83" r="15" fill="#6D00CC"/></symbol><symbol viewBox="0 0 120 103.2" fill="none" id="one-silver-arrow" xmlns="http://www.w3.org/2000/svg"><path d="M42.237 52.632 0 86l50.228-20.296L100 86 57.763 52.632 50.228 0l-7.99 52.632Z" fill="#FAFAFA"/></symbol><symbol fill="none" viewBox="0 0 1300 688" id="silver-arrow" xmlns="http://www.w3.org/2000/svg"><path d="M142.237 224.632 100 258l50.228-20.296L200 258l-42.237-33.368L150.228 172l-7.991 52.632ZM142.237 310.632 100 344l50.228-20.296L200 344l-42.237-33.368L150.228 258l-7.991 52.632ZM142.237 138.632 100 172l50.228-20.296L200 172l-42.237-33.368L150.228 86l-7.991 52.632ZM242.237 267.632 200 301l50.228-20.296L300 301l-42.237-33.368L250.228 215l-7.991 52.632ZM42.237 267.632 0 301l50.228-20.296L100 301l-42.237-33.368L50.228 215l-7.99 52.632ZM42.237 181.632 0 215l50.228-20.296L100 215l-42.237-33.368L50.228 129l-7.99 52.632ZM242.237 181.632 200 215l50.228-20.296L300 215l-42.237-33.368L250.228 129l-7.991 52.632ZM442.237 181.632 400 215l50.228-20.296L500 215l-42.237-33.368L450.228 129l-7.991 52.632ZM442.237 267.632 400 301l50.228-20.296L500 301l-42.237-33.368L450.228 215l-7.991 52.632ZM442.237 95.632 400 129l50.228-20.296L500 129l-42.237-33.368L450.228 43l-7.991 52.632ZM542.237 224.632 500 258l50.228-20.296L600 258l-42.237-33.368L550.228 172l-7.991 52.632ZM342.237 224.632 300 258l50.228-20.296L400 258l-42.237-33.368L350.228 172l-7.991 52.632ZM342.237 138.632 300 172l50.228-20.296L400 172l-42.237-33.368L350.228 86l-7.991 52.632ZM542.237 138.632 500 172l50.228-20.296L600 172l-42.237-33.368L550.228 86l-7.991 52.632ZM742.237 138.632 700 172l50.228-20.296L800 172l-42.237-33.368L750.228 86l-7.991 52.632ZM742.237 224.632 700 258l50.228-20.296L800 258l-42.237-33.368L750.228 172l-7.991 52.632ZM742.237 52.632 700 86l50.228-20.296L800 86l-42.237-33.368L750.228 0l-7.991 52.632ZM842.237 181.632 800 215l50.228-20.296L900 215l-42.237-33.368L850.228 129l-7.991 52.632ZM642.237 181.632 600 215l50.228-20.296L700 215l-42.237-33.368L650.228 129l-7.991 52.632ZM642.237 95.632 600 129l50.228-20.296L700 129l-42.237-33.368L650.228 43l-7.991 52.632ZM842.237 95.632 800 129l50.228-20.296L900 129l-42.237-33.368L850.228 43l-7.991 52.632ZM342.237 396.632 300 430l50.228-20.296L400 430l-42.237-33.368L350.228 344l-7.991 52.632ZM342.237 482.632 300 516l50.228-20.296L400 516l-42.237-33.368L350.228 430l-7.991 52.632ZM342.237 310.632 300 344l50.228-20.296L400 344l-42.237-33.368L350.228 258l-7.991 52.632ZM442.237 439.632 400 473l50.228-20.296L500 473l-42.237-33.368L450.228 387l-7.991 52.632ZM242.237 439.632 200 473l50.228-20.296L300 473l-42.237-33.368L250.228 387l-7.991 52.632ZM242.237 353.632 200 387l50.228-20.296L300 387l-42.237-33.368L250.228 301l-7.991 52.632ZM442.237 353.632 400 387l50.228-20.296L500 387l-42.237-33.368L450.228 301l-7.991 52.632ZM642.237 353.632 600 387l50.228-20.296L700 387l-42.237-33.368L650.228 301l-7.991 52.632ZM642.237 439.632 600 473l50.228-20.296L700 473l-42.237-33.368L650.228 387l-7.991 52.632ZM642.237 267.632 600 301l50.228-20.296L700 301l-42.237-33.368L650.228 215l-7.991 52.632ZM742.237 396.632 700 430l50.228-20.296L800 430l-42.237-33.368L750.228 344l-7.991 52.632ZM542.237 396.632 500 430l50.228-20.296L600 430l-42.237-33.368L550.228 344l-7.991 52.632ZM542.237 310.632 500 344l50.228-20.296L600 344l-42.237-33.368L550.228 258l-7.991 52.632ZM742.237 310.632 700 344l50.228-20.296L800 344l-42.237-33.368L750.228 258l-7.991 52.632ZM942.237 310.632 900 344l50.228-20.296L1000 344l-42.237-33.368L950.228 258l-7.991 52.632ZM942.237 396.632 900 430l50.228-20.296L1000 430l-42.237-33.368L950.228 344l-7.991 52.632ZM942.237 224.632 900 258l50.228-20.296L1000 258l-42.237-33.368L950.228 172l-7.991 52.632ZM1042.24 353.632 1000 387l50.23-20.296L1100 387l-42.24-33.368-7.53-52.632-7.99 52.632ZM842.237 353.632 800 387l50.228-20.296L900 387l-42.237-33.368L850.228 301l-7.991 52.632ZM842.237 267.632 800 301l50.228-20.296L900 301l-42.237-33.368L850.228 215l-7.991 52.632ZM1042.24 267.632 1000 301l50.23-20.296L1100 301l-42.24-33.368-7.53-52.632-7.99 52.632ZM542.237 568.632 500 602l50.228-20.296L600 602l-42.237-33.368L550.228 516l-7.991 52.632ZM542.237 654.632 500 688l50.228-20.296L600 688l-42.237-33.368L550.228 602l-7.991 52.632ZM542.237 482.632 500 516l50.228-20.296L600 516l-42.237-33.368L550.228 430l-7.991 52.632ZM642.237 611.632 600 645l50.228-20.296L700 645l-42.237-33.368L650.228 559l-7.991 52.632ZM442.237 611.632 400 645l50.228-20.296L500 645l-42.237-33.368L450.228 559l-7.991 52.632ZM442.237 525.632 400 559l50.228-20.296L500 559l-42.237-33.368L450.228 473l-7.991 52.632ZM642.237 525.632 600 559l50.228-20.296L700 559l-42.237-33.368L650.228 473l-7.991 52.632ZM842.237 525.632 800 559l50.228-20.296L900 559l-42.237-33.368L850.228 473l-7.991 52.632ZM842.237 611.632 800 645l50.228-20.296L900 645l-42.237-33.368L850.228 559l-7.991 52.632ZM842.237 439.632 800 473l50.228-20.296L900 473l-42.237-33.368L850.228 387l-7.991 52.632ZM942.237 568.632 900 602l50.228-20.296L1000 602l-42.237-33.368L950.228 516l-7.991 52.632ZM742.237 568.632 700 602l50.228-20.296L800 602l-42.237-33.368L750.228 516l-7.991 52.632ZM742.237 482.632 700 516l50.228-20.296L800 516l-42.237-33.368L750.228 430l-7.991 52.632ZM942.237 482.632 900 516l50.228-20.296L1000 516l-42.237-33.368L950.228 430l-7.991 52.632ZM1142.24 482.632 1100 516l50.23-20.296L1200 516l-42.24-33.368-7.53-52.632-7.99 52.632ZM1142.24 568.632 1100 602l50.23-20.296L1200 602l-42.24-33.368-7.53-52.632-7.99 52.632ZM1142.24 396.632 1100 430l50.23-20.296L1200 430l-42.24-33.368-7.53-52.632-7.99 52.632ZM1242.24 525.632 1200 559l50.23-20.296L1300 559l-42.24-33.368-7.53-52.632-7.99 52.632ZM1042.24 525.632 1000 559l50.23-20.296L1100 559l-42.24-33.368-7.53-52.632-7.99 52.632Z" fill="#F7D417"/><path d="M1042.24 439.632 1000 473l50.23-20.296L1100 473l-42.24-33.368-7.53-52.632-7.99 52.632ZM1242.24 439.632 1200 473l50.23-20.296L1300 473l-42.24-33.368-7.53-52.632-7.99 52.632Z" fill="#F7D417"/></symbol><symbol fill="none" viewBox="0 0 1300 688" id="silver-arrow-silver" xmlns="http://www.w3.org/2000/svg"><path d="M142.237 224.632 100 258l50.228-20.296L200 258l-42.237-33.368L150.228 172l-7.991 52.632ZM142.237 310.632 100 344l50.228-20.296L200 344l-42.237-33.368L150.228 258l-7.991 52.632ZM142.237 138.632 100 172l50.228-20.296L200 172l-42.237-33.368L150.228 86l-7.991 52.632ZM242.237 267.632 200 301l50.228-20.296L300 301l-42.237-33.368L250.228 215l-7.991 52.632ZM42.237 267.632 0 301l50.228-20.296L100 301l-42.237-33.368L50.228 215l-7.99 52.632ZM42.237 181.632 0 215l50.228-20.296L100 215l-42.237-33.368L50.228 129l-7.99 52.632ZM242.237 181.632 200 215l50.228-20.296L300 215l-42.237-33.368L250.228 129l-7.991 52.632ZM442.237 181.632 400 215l50.228-20.296L500 215l-42.237-33.368L450.228 129l-7.991 52.632ZM442.237 267.632 400 301l50.228-20.296L500 301l-42.237-33.368L450.228 215l-7.991 52.632ZM442.237 95.632 400 129l50.228-20.296L500 129l-42.237-33.368L450.228 43l-7.991 52.632ZM542.237 224.632 500 258l50.228-20.296L600 258l-42.237-33.368L550.228 172l-7.991 52.632ZM342.237 224.632 300 258l50.228-20.296L400 258l-42.237-33.368L350.228 172l-7.991 52.632ZM342.237 138.632 300 172l50.228-20.296L400 172l-42.237-33.368L350.228 86l-7.991 52.632ZM542.237 138.632 500 172l50.228-20.296L600 172l-42.237-33.368L550.228 86l-7.991 52.632ZM742.237 138.632 700 172l50.228-20.296L800 172l-42.237-33.368L750.228 86l-7.991 52.632ZM742.237 224.632 700 258l50.228-20.296L800 258l-42.237-33.368L750.228 172l-7.991 52.632ZM742.237 52.632 700 86l50.228-20.296L800 86l-42.237-33.368L750.228 0l-7.991 52.632ZM842.237 181.632 800 215l50.228-20.296L900 215l-42.237-33.368L850.228 129l-7.991 52.632ZM642.237 181.632 600 215l50.228-20.296L700 215l-42.237-33.368L650.228 129l-7.991 52.632ZM642.237 95.632 600 129l50.228-20.296L700 129l-42.237-33.368L650.228 43l-7.991 52.632ZM842.237 95.632 800 129l50.228-20.296L900 129l-42.237-33.368L850.228 43l-7.991 52.632ZM342.237 396.632 300 430l50.228-20.296L400 430l-42.237-33.368L350.228 344l-7.991 52.632ZM342.237 482.632 300 516l50.228-20.296L400 516l-42.237-33.368L350.228 430l-7.991 52.632ZM342.237 310.632 300 344l50.228-20.296L400 344l-42.237-33.368L350.228 258l-7.991 52.632ZM442.237 439.632 400 473l50.228-20.296L500 473l-42.237-33.368L450.228 387l-7.991 52.632ZM242.237 439.632 200 473l50.228-20.296L300 473l-42.237-33.368L250.228 387l-7.991 52.632ZM242.237 353.632 200 387l50.228-20.296L300 387l-42.237-33.368L250.228 301l-7.991 52.632ZM442.237 353.632 400 387l50.228-20.296L500 387l-42.237-33.368L450.228 301l-7.991 52.632ZM642.237 353.632 600 387l50.228-20.296L700 387l-42.237-33.368L650.228 301l-7.991 52.632ZM642.237 439.632 600 473l50.228-20.296L700 473l-42.237-33.368L650.228 387l-7.991 52.632ZM642.237 267.632 600 301l50.228-20.296L700 301l-42.237-33.368L650.228 215l-7.991 52.632ZM742.237 396.632 700 430l50.228-20.296L800 430l-42.237-33.368L750.228 344l-7.991 52.632ZM542.237 396.632 500 430l50.228-20.296L600 430l-42.237-33.368L550.228 344l-7.991 52.632ZM542.237 310.632 500 344l50.228-20.296L600 344l-42.237-33.368L550.228 258l-7.991 52.632ZM742.237 310.632 700 344l50.228-20.296L800 344l-42.237-33.368L750.228 258l-7.991 52.632ZM942.237 310.632 900 344l50.228-20.296L1000 344l-42.237-33.368L950.228 258l-7.991 52.632ZM942.237 396.632 900 430l50.228-20.296L1000 430l-42.237-33.368L950.228 344l-7.991 52.632ZM942.237 224.632 900 258l50.228-20.296L1000 258l-42.237-33.368L950.228 172l-7.991 52.632ZM1042.24 353.632 1000 387l50.23-20.296L1100 387l-42.24-33.368-7.53-52.632-7.99 52.632ZM842.237 353.632 800 387l50.228-20.296L900 387l-42.237-33.368L850.228 301l-7.991 52.632ZM842.237 267.632 800 301l50.228-20.296L900 301l-42.237-33.368L850.228 215l-7.991 52.632ZM1042.24 267.632 1000 301l50.23-20.296L1100 301l-42.24-33.368-7.53-52.632-7.99 52.632ZM542.237 568.632 500 602l50.228-20.296L600 602l-42.237-33.368L550.228 516l-7.991 52.632ZM542.237 654.632 500 688l50.228-20.296L600 688l-42.237-33.368L550.228 602l-7.991 52.632ZM542.237 482.632 500 516l50.228-20.296L600 516l-42.237-33.368L550.228 430l-7.991 52.632ZM642.237 611.632 600 645l50.228-20.296L700 645l-42.237-33.368L650.228 559l-7.991 52.632ZM442.237 611.632 400 645l50.228-20.296L500 645l-42.237-33.368L450.228 559l-7.991 52.632ZM442.237 525.632 400 559l50.228-20.296L500 559l-42.237-33.368L450.228 473l-7.991 52.632ZM642.237 525.632 600 559l50.228-20.296L700 559l-42.237-33.368L650.228 473l-7.991 52.632ZM842.237 525.632 800 559l50.228-20.296L900 559l-42.237-33.368L850.228 473l-7.991 52.632ZM842.237 611.632 800 645l50.228-20.296L900 645l-42.237-33.368L850.228 559l-7.991 52.632ZM842.237 439.632 800 473l50.228-20.296L900 473l-42.237-33.368L850.228 387l-7.991 52.632ZM942.237 568.632 900 602l50.228-20.296L1000 602l-42.237-33.368L950.228 516l-7.991 52.632ZM742.237 568.632 700 602l50.228-20.296L800 602l-42.237-33.368L750.228 516l-7.991 52.632ZM742.237 482.632 700 516l50.228-20.296L800 516l-42.237-33.368L750.228 430l-7.991 52.632ZM942.237 482.632 900 516l50.228-20.296L1000 516l-42.237-33.368L950.228 430l-7.991 52.632ZM1142.24 482.632 1100 516l50.23-20.296L1200 516l-42.24-33.368-7.53-52.632-7.99 52.632ZM1142.24 568.632 1100 602l50.23-20.296L1200 602l-42.24-33.368-7.53-52.632-7.99 52.632ZM1142.24 396.632 1100 430l50.23-20.296L1200 430l-42.24-33.368-7.53-52.632-7.99 52.632ZM1242.24 525.632 1200 559l50.23-20.296L1300 559l-42.24-33.368-7.53-52.632-7.99 52.632ZM1042.24 525.632 1000 559l50.23-20.296L1100 559l-42.24-33.368-7.53-52.632-7.99 52.632Z" fill="#121212"/><path d="M1042.24 439.632 1000 473l50.23-20.296L1100 473l-42.24-33.368-7.53-52.632-7.99 52.632ZM1242.24 439.632 1200 473l50.23-20.296L1300 473l-42.24-33.368-7.53-52.632-7.99 52.632Z" fill="#121212"/></symbol><symbol fill="none" viewBox="0 0 1438 855" id="silverstone" xmlns="http://www.w3.org/2000/svg"><path d="M51 319.483c-2.532 1.661-5.442 2.845-7.734 4.517m0 0c-89.35 65.17.21 138.075 57.734 167l458 233.5c56.4 23.6 84.833 76.5 92 100 42.8 44.4 87.833 18.5 105 0 14.4-20 49.333-24.667 65-24.5l78.5 24.5c24.8 13.2 52.333-1.833 63-11 13.2-9.6 41.83-19.667 54.5-23.5l135.5-9c79.2-6.4 176-34.333 214.5-47.5 51.2-20.8 65-56.667 65.5-72L1395 319c-4.8-55.6-59.33-107.5-86-126.5L1177.5 134c-26.5 3-43 6-47.5 38.5-3.6 26 18.17 41.833 29.5 46.5l65.5 6c36 6.4 34.67 51 29.5 72.5l-363 422c-56 14.8-117.667-10.167-141.5-24.5-21.2-16.8-8.833-29.333 0-33.5l80-29c22-8 9.167-31.667 0-42.5L726 464.5c-19.2-42.8-12.667-87.833-7-105 15.6-76-6.5-110-19.5-117.5L480 83.5l-118-78c-36.4-1.6-77.167 25.667-93 39.5-40.5 35.5-20.5 44.5 0 64.5 16.4 16 6.833 30.333 0 35.5L154.5 252c-13.2 13.6-79.656 53.667-111.234 72Z" stroke="#FAFAFA" stroke-width="10"/></symbol><symbol fill="none" viewBox="0 0 399 37" id="triple-line" xmlns="http://www.w3.org/2000/svg"><path d="M0 37a9 9 0 0 1 9-9h358a9 9 0 0 1-9 9H0ZM0 23a9 9 0 0 1 9-9h375a9 9 0 0 1-9 9H0ZM0 9a9 9 0 0 1 9-9h390a9 9 0 0 1-9 9H0Z" fill="#FAFAFA" class="hsvg-line"/></symbol></svg>