<?xml version="1.0" encoding="utf-8"?><svg xmlns="http://www.w3.org/2000/svg" xmlns:xlink="http://www.w3.org/1999/xlink"><symbol fill="none" viewBox="0 0 1300 688" id="silver-arrow" xmlns="http://www.w3.org/2000/svg"><path d="M142.237 224.632 100 258l50.228-20.296L200 258l-42.237-33.368L150.228 172l-7.991 52.632ZM142.237 310.632 100 344l50.228-20.296L200 344l-42.237-33.368L150.228 258l-7.991 52.632ZM142.237 138.632 100 172l50.228-20.296L200 172l-42.237-33.368L150.228 86l-7.991 52.632ZM242.237 267.632 200 301l50.228-20.296L300 301l-42.237-33.368L250.228 215l-7.991 52.632ZM42.237 267.632 0 301l50.228-20.296L100 301l-42.237-33.368L50.228 215l-7.99 52.632ZM42.237 181.632 0 215l50.228-20.296L100 215l-42.237-33.368L50.228 129l-7.99 52.632ZM242.237 181.632 200 215l50.228-20.296L300 215l-42.237-33.368L250.228 129l-7.991 52.632ZM442.237 181.632 400 215l50.228-20.296L500 215l-42.237-33.368L450.228 129l-7.991 52.632ZM442.237 267.632 400 301l50.228-20.296L500 301l-42.237-33.368L450.228 215l-7.991 52.632ZM442.237 95.632 400 129l50.228-20.296L500 129l-42.237-33.368L450.228 43l-7.991 52.632ZM542.237 224.632 500 258l50.228-20.296L600 258l-42.237-33.368L550.228 172l-7.991 52.632ZM342.237 224.632 300 258l50.228-20.296L400 258l-42.237-33.368L350.228 172l-7.991 52.632ZM342.237 138.632 300 172l50.228-20.296L400 172l-42.237-33.368L350.228 86l-7.991 52.632ZM542.237 138.632 500 172l50.228-20.296L600 172l-42.237-33.368L550.228 86l-7.991 52.632ZM742.237 138.632 700 172l50.228-20.296L800 172l-42.237-33.368L750.228 86l-7.991 52.632ZM742.237 224.632 700 258l50.228-20.296L800 258l-42.237-33.368L750.228 172l-7.991 52.632ZM742.237 52.632 700 86l50.228-20.296L800 86l-42.237-33.368L750.228 0l-7.991 52.632ZM842.237 181.632 800 215l50.228-20.296L900 215l-42.237-33.368L850.228 129l-7.991 52.632ZM642.237 181.632 600 215l50.228-20.296L700 215l-42.237-33.368L650.228 129l-7.991 52.632ZM642.237 95.632 600 129l50.228-20.296L700 129l-42.237-33.368L650.228 43l-7.991 52.632ZM842.237 95.632 800 129l50.228-20.296L900 129l-42.237-33.368L850.228 43l-7.991 52.632ZM342.237 396.632 300 430l50.228-20.296L400 430l-42.237-33.368L350.228 344l-7.991 52.632ZM342.237 482.632 300 516l50.228-20.296L400 516l-42.237-33.368L350.228 430l-7.991 52.632ZM342.237 310.632 300 344l50.228-20.296L400 344l-42.237-33.368L350.228 258l-7.991 52.632ZM442.237 439.632 400 473l50.228-20.296L500 473l-42.237-33.368L450.228 387l-7.991 52.632ZM242.237 439.632 200 473l50.228-20.296L300 473l-42.237-33.368L250.228 387l-7.991 52.632ZM242.237 353.632 200 387l50.228-20.296L300 387l-42.237-33.368L250.228 301l-7.991 52.632ZM442.237 353.632 400 387l50.228-20.296L500 387l-42.237-33.368L450.228 301l-7.991 52.632ZM642.237 353.632 600 387l50.228-20.296L700 387l-42.237-33.368L650.228 301l-7.991 52.632ZM642.237 439.632 600 473l50.228-20.296L700 473l-42.237-33.368L650.228 387l-7.991 52.632ZM642.237 267.632 600 301l50.228-20.296L700 301l-42.237-33.368L650.228 215l-7.991 52.632ZM742.237 396.632 700 430l50.228-20.296L800 430l-42.237-33.368L750.228 344l-7.991 52.632ZM542.237 396.632 500 430l50.228-20.296L600 430l-42.237-33.368L550.228 344l-7.991 52.632ZM542.237 310.632 500 344l50.228-20.296L600 344l-42.237-33.368L550.228 258l-7.991 52.632ZM742.237 310.632 700 344l50.228-20.296L800 344l-42.237-33.368L750.228 258l-7.991 52.632ZM942.237 310.632 900 344l50.228-20.296L1000 344l-42.237-33.368L950.228 258l-7.991 52.632ZM942.237 396.632 900 430l50.228-20.296L1000 430l-42.237-33.368L950.228 344l-7.991 52.632ZM942.237 224.632 900 258l50.228-20.296L1000 258l-42.237-33.368L950.228 172l-7.991 52.632ZM1042.24 353.632 1000 387l50.23-20.296L1100 387l-42.24-33.368-7.53-52.632-7.99 52.632ZM842.237 353.632 800 387l50.228-20.296L900 387l-42.237-33.368L850.228 301l-7.991 52.632ZM842.237 267.632 800 301l50.228-20.296L900 301l-42.237-33.368L850.228 215l-7.991 52.632ZM1042.24 267.632 1000 301l50.23-20.296L1100 301l-42.24-33.368-7.53-52.632-7.99 52.632ZM542.237 568.632 500 602l50.228-20.296L600 602l-42.237-33.368L550.228 516l-7.991 52.632ZM542.237 654.632 500 688l50.228-20.296L600 688l-42.237-33.368L550.228 602l-7.991 52.632ZM542.237 482.632 500 516l50.228-20.296L600 516l-42.237-33.368L550.228 430l-7.991 52.632ZM642.237 611.632 600 645l50.228-20.296L700 645l-42.237-33.368L650.228 559l-7.991 52.632ZM442.237 611.632 400 645l50.228-20.296L500 645l-42.237-33.368L450.228 559l-7.991 52.632ZM442.237 525.632 400 559l50.228-20.296L500 559l-42.237-33.368L450.228 473l-7.991 52.632ZM642.237 525.632 600 559l50.228-20.296L700 559l-42.237-33.368L650.228 473l-7.991 52.632ZM842.237 525.632 800 559l50.228-20.296L900 559l-42.237-33.368L850.228 473l-7.991 52.632ZM842.237 611.632 800 645l50.228-20.296L900 645l-42.237-33.368L850.228 559l-7.991 52.632ZM842.237 439.632 800 473l50.228-20.296L900 473l-42.237-33.368L850.228 387l-7.991 52.632ZM942.237 568.632 900 602l50.228-20.296L1000 602l-42.237-33.368L950.228 516l-7.991 52.632ZM742.237 568.632 700 602l50.228-20.296L800 602l-42.237-33.368L750.228 516l-7.991 52.632ZM742.237 482.632 700 516l50.228-20.296L800 516l-42.237-33.368L750.228 430l-7.991 52.632ZM942.237 482.632 900 516l50.228-20.296L1000 516l-42.237-33.368L950.228 430l-7.991 52.632ZM1142.24 482.632 1100 516l50.23-20.296L1200 516l-42.24-33.368-7.53-52.632-7.99 52.632ZM1142.24 568.632 1100 602l50.23-20.296L1200 602l-42.24-33.368-7.53-52.632-7.99 52.632ZM1142.24 396.632 1100 430l50.23-20.296L1200 430l-42.24-33.368-7.53-52.632-7.99 52.632ZM1242.24 525.632 1200 559l50.23-20.296L1300 559l-42.24-33.368-7.53-52.632-7.99 52.632ZM1042.24 525.632 1000 559l50.23-20.296L1100 559l-42.24-33.368-7.53-52.632-7.99 52.632Z" fill="#F7D417"/><path d="M1042.24 439.632 1000 473l50.23-20.296L1100 473l-42.24-33.368-7.53-52.632-7.99 52.632ZM1242.24 439.632 1200 473l50.23-20.296L1300 473l-42.24-33.368-7.53-52.632-7.99 52.632Z" fill="#F7D417"/></symbol><symbol fill="none" viewBox="0 0 399 37" id="triple-line" xmlns="http://www.w3.org/2000/svg"><path d="M0 37a9 9 0 0 1 9-9h358a9 9 0 0 1-9 9H0ZM0 23a9 9 0 0 1 9-9h375a9 9 0 0 1-9 9H0ZM0 9a9 9 0 0 1 9-9h390a9 9 0 0 1-9 9H0Z" fill="#FAFAFA" class="bsvg-line"/></symbol><symbol viewBox="0 0 48 48" id="vite" xmlns="http://www.w3.org/2000/svg"><path fill="#9575cd" d="M44.86 9.976 25.023 45.448a1.079 1.079 0 0 1-1.878.008L2.915 9.979c-.453-.794.226-1.756 1.126-1.595l19.859 3.55c.127.023.256.022.383-.001l19.443-3.544c.897-.164 1.579.791 1.134 1.587z"/><path fill="#fbc02d" d="M33.574 3.01 19.019 5.862a.536.536 0 0 0-.431.493l-.895 15.121a.534.534 0 0 0 .654.552l4.052-.935a.535.535 0 0 1 .644.628l-1.204 5.895a.534.534 0 0 0 .679.618l2.503-.76a.535.535 0 0 1 .679.62l-1.913 9.26c-.12.579.651.895.972.398l.215-.332 11.86-23.669a.534.534 0 0 0-.579-.764l-4.171.805a.535.535 0 0 1-.615-.673l2.722-9.438a.534.534 0 0 0-.617-.671z"/></symbol></svg>